<?xml version="1.0" encoding="UTF-8"?>
<svg xmlns="http://www.w3.org/2000/svg" xmlns:xlink="http://www.w3.org/1999/xlink" width="200px" height="189px" viewBox="0 0 200 189" version="1.1">
<g id="surface1">
<path style=" stroke:none;fill-rule:nonzero;fill:rgb(34.509804%,27.058824%,30.196078%);fill-opacity:1;" d="M 192.277344 10.683594 C 174.246094 -8.617188 148.199219 6.367188 147.828125 30.511719 C 108.964844 33.324219 70.082031 35.808594 31.230469 38.824219 C 21.269531 40.464844 5.59375 37.628906 3.058594 50.6875 C 2.367188 84.449219 4.511719 119.304688 6.789062 153.328125 C 8.800781 183.335938 14.28125 190.203125 44.933594 186.808594 C 78.21875 184.738281 111.472656 182.066406 144.796875 180.597656 C 158.148438 178.738281 177.457031 183.828125 185.210938 169.695312 C 188.984375 131 184.296875 90.90625 180.671875 52.078125 C 196.003906 44.523438 204.421875 25.398438 192.277344 10.683594 Z M 192.277344 10.683594 "/>
<path style=" stroke:none;fill-rule:nonzero;fill:rgb(97.254902%,78.039216%,58.431373%);fill-opacity:1;" d="M 4.582031 67.058594 C 4.582031 67.058594 1.308594 46.203125 9.953125 43.136719 C 18.59375 40.070312 149.792969 31.996094 149.792969 31.996094 C 152.414062 46.078125 165.976562 51.945312 178.523438 50.019531 L 178.523438 56.082031 L 122.925781 102.285156 L 180.136719 165.363281 C 180.136719 165.363281 183.460938 168.3125 182.589844 170.714844 C 181.71875 173.117188 180.738281 176.175781 165.917969 177.378906 C 151.097656 178.578125 32.5625 187.417969 24.335938 185.515625 C 16.105469 183.613281 12.683594 175.847656 12.683594 175.847656 C 30.175781 154.179688 63.027344 122.695312 80.761719 104.300781 Z M 4.582031 67.058594 "/>
<path style=" stroke:none;fill-rule:nonzero;fill:rgb(93.333333%,70.196078%,47.058824%);fill-opacity:1;" d="M 3.96875 69.023438 C 4.738281 79.386719 8.28125 161.085938 12.679688 175.847656 C 27.929688 157.167969 65.78125 119.714844 80.757812 104.296875 L 7.332031 68.402344 Z M 3.96875 69.023438 "/>
<path style=" stroke:none;fill-rule:nonzero;fill:rgb(90.588235%,60%,34.901961%);fill-opacity:1;" d="M 178.519531 56.082031 C 180.355469 61.554688 185.03125 155.78125 184.765625 165.472656 C 184.769531 165.472656 182.589844 170.714844 182.589844 170.714844 L 181.027344 166.292969 C 167.269531 151.175781 136.878906 117.679688 122.925781 102.285156 Z M 178.519531 56.082031 "/>
<path style=" stroke:none;fill-rule:nonzero;fill:rgb(90.588235%,60.392157%,34.901961%);fill-opacity:1;" d="M 5.382812 71.171875 C 13.152344 77.476562 59.601562 89.410156 53.324219 110.515625 C 43.382812 141.722656 29.433594 151.183594 11.609375 169.648438 L 12.996094 175.359375 C 28.507812 155.816406 63.160156 122.125 80.511719 104.183594 C 71.46875 99.796875 14.476562 71.746094 6.792969 68.40625 C 6.792969 68.40625 5.285156 69.632812 5.382812 71.171875 Z M 5.382812 71.171875 "/>
<path style=" stroke:none;fill-rule:nonzero;fill:rgb(93.333333%,70.196078%,47.058824%);fill-opacity:1;" d="M 128.683594 102.558594 C 138.203125 90.78125 167.164062 72.824219 169.015625 111.703125 C 170.898438 132.488281 172.058594 142.480469 169.914062 142.453125 C 167.765625 142.425781 127.738281 105.941406 128.683594 102.558594 Z M 128.683594 102.558594 "/>
<path style=" stroke:none;fill-rule:nonzero;fill:rgb(93.72549%,49.803922%,37.254902%);fill-opacity:1;" d="M 195.527344 27.273438 C 195.027344 56.671875 151.398438 56.667969 150.902344 27.273438 C 151.402344 -2.125 195.03125 -2.121094 195.527344 27.273438 Z M 195.527344 27.273438 "/>
<path style=" stroke:none;fill-rule:nonzero;fill:rgb(90.980392%,37.647059%,25.882353%);fill-opacity:1;" d="M 162.234375 47.738281 C 169.742188 31.832031 202.011719 34.117188 186.53125 9.121094 C 209.578125 25.382812 186.726562 61.003906 162.234375 47.738281 Z M 162.234375 47.738281 "/>
<path style=" stroke:none;fill-rule:nonzero;fill:rgb(96.078431%,69.803922%,47.058824%);fill-opacity:1;" d="M 155.21875 176.722656 C 160.113281 169.628906 165.441406 159.894531 162.078125 151.027344 C 160.886719 147.945312 158.164062 145.21875 158.113281 141.808594 C 174.714844 163.214844 202.335938 176.988281 155.21875 176.722656 Z M 155.21875 176.722656 "/>
<path style=" stroke:none;fill-rule:nonzero;fill:rgb(96.078431%,69.803922%,47.058824%);fill-opacity:1;" d="M 173.824219 58.179688 C 160.800781 57.296875 146.148438 47.519531 144.050781 33.957031 C 144.015625 33.121094 143.40625 33.488281 143.023438 33.367188 C 144.433594 33.523438 148.679688 32.140625 149.042969 33.746094 C 151.5625 43.789062 160.289062 51.558594 170.628906 52.519531 C 172.296875 53.300781 178.023438 51.484375 178.109375 53.03125 C 179.128906 55.988281 175.632812 56.617188 173.824219 58.179688 Z M 173.824219 58.179688 "/>
<path style=" stroke:none;fill-rule:nonzero;fill:rgb(96.078431%,69.803922%,47.058824%);fill-opacity:1;" d="M 122.746094 103.375 C 98.574219 119.539062 113.769531 120.125 84.902344 106.765625 C 83.824219 106.035156 82.574219 105.703125 81.453125 105.078125 C 79.808594 103.652344 79.136719 105.445312 77.941406 106.433594 C 75.960938 108.320312 73.90625 110.210938 72.027344 112.230469 C 83.402344 102.261719 94.375 119.707031 106.421875 118.371094 C 117.367188 114.519531 113.421875 109.433594 129.953125 110.226562 C 127.757812 107.722656 125.140625 105.667969 122.746094 103.375 Z M 122.746094 103.375 "/>
<path style=" stroke:none;fill-rule:nonzero;fill:rgb(34.509804%,27.058824%,30.196078%);fill-opacity:1;" d="M 6.464844 71.652344 C 6.464844 71.660156 6.464844 71.664062 6.464844 71.671875 C 6.464844 71.664062 6.46875 71.664062 6.472656 71.660156 C 6.46875 71.660156 6.46875 71.65625 6.464844 71.652344 Z M 6.464844 71.652344 "/>
<path style=" stroke:none;fill-rule:nonzero;fill:rgb(34.509804%,27.058824%,30.196078%);fill-opacity:1;" d="M 192.277344 10.683594 C 174.246094 -8.617188 148.199219 6.367188 147.828125 30.511719 C 108.964844 33.324219 70.082031 35.808594 31.230469 38.824219 C 21.269531 40.464844 5.59375 37.628906 3.058594 50.6875 C 2.367188 84.449219 4.511719 119.304688 6.789062 153.328125 C 8.800781 183.335938 14.28125 190.203125 44.933594 186.808594 C 78.21875 184.738281 111.472656 182.066406 144.796875 180.597656 C 158.148438 178.738281 177.457031 183.828125 185.210938 169.695312 C 188.984375 131 184.296875 90.90625 180.671875 52.078125 C 196.003906 44.523438 204.421875 25.398438 192.277344 10.683594 Z M 6 66.042969 C 3.808594 47.660156 6.808594 41.960938 26.058594 42.226562 C 66.917969 40.042969 107.71875 36.660156 148.558594 34.183594 C 157.757812 60.3125 177.640625 48.707031 177.035156 54.933594 C 152.558594 73.039062 129.570312 96.289062 104.988281 113.621094 C 72.03125 97.988281 38.355469 82.007812 6 66.042969 Z M 13.328125 173.0625 C 12.957031 171.871094 12.816406 170.726562 12.710938 169.578125 C 12.6875 169.480469 12.660156 169.378906 12.636719 169.28125 C 8.367188 136.550781 8.199219 103.421875 6.269531 70.5 C 7.695312 68.566406 23.140625 77.640625 77.710938 103.785156 C 59.519531 126.402344 32.53125 148.835938 13.328125 173.0625 Z M 180.90625 170.65625 C 174.234375 178.59375 157.59375 174.910156 147.976562 176.242188 C 118.601562 177.15625 89.316406 179.652344 60.023438 181.960938 C 47.382812 181.59375 22.742188 189.792969 15.144531 177.535156 C 13.761719 175.550781 13.800781 175.5625 15.367188 173.691406 C 35.738281 150.847656 57.347656 129.007812 79.0625 107.480469 C 80.21875 106.523438 80.863281 104.789062 82.457031 106.167969 C 83.546875 106.769531 84.757812 107.09375 85.796875 107.800781 C 110.027344 118.453125 100.414062 122.132812 121.605469 104.480469 C 135.332031 114.738281 146.628906 130.410156 158.746094 143.171875 C 163 149.175781 181.09375 165.140625 180.90625 170.65625 Z M 181.453125 116.835938 C 180.96875 133.570312 184.136719 150.480469 182.671875 167.050781 C 163.972656 144.949219 144.777344 123.359375 124.585938 102.644531 C 136.292969 91.101562 151.570312 80.363281 164.402344 69.019531 C 166.550781 67.761719 176.4375 57.261719 177.441406 59.289062 C 179.136719 78.4375 180.832031 97.617188 181.453125 116.835938 Z M 194.296875 27.390625 C 189.65625 66.117188 134.023438 44.863281 157.777344 13.328125 C 170.101562 -1.371094 195.179688 8.140625 194.296875 27.390625 Z M 194.296875 27.390625 "/>
</g>
</svg>
