<?xml version="1.0" encoding="UTF-8" standalone="no" ?>
<!DOCTYPE svg PUBLIC "-//W3C//DTD SVG 1.1//EN" "http://www.w3.org/Graphics/SVG/1.1/DTD/svg11.dtd">
<svg xmlns="http://www.w3.org/2000/svg" xmlns:xlink="http://www.w3.org/1999/xlink" version="1.1" width="1080" height="1080" viewBox="0 0 1080 1080" xml:space="preserve">
<desc>Created with Fabric.js 5.2.4</desc>
<defs>
</defs>
<g transform="matrix(1 0 0 1 540 540)" id="fb2ce4c6-5062-4977-ab2c-abcdd6d5499f"  >
<rect style="stroke: none; stroke-width: 1; stroke-dasharray: none; stroke-linecap: butt; stroke-dashoffset: 0; stroke-linejoin: miter; stroke-miterlimit: 4; fill: rgb(255,255,255); fill-rule: nonzero; opacity: 1; visibility: hidden;" vector-effect="non-scaling-stroke"  x="-540" y="-540" rx="0" ry="0" width="1080" height="1080" />
</g>
<g transform="matrix(1 0 0 1 540 540)" id="c411039d-5925-476a-96cc-c996cc79f56b"  >
</g>
<g transform="matrix(1 0 0 1 540 540)"  >
<g style="" vector-effect="non-scaling-stroke"   >
		<g transform="matrix(1.6 0 0 1.6 0 0)"  >
<path style="stroke: none; stroke-width: 1; stroke-dasharray: none; stroke-linecap: butt; stroke-dashoffset: 0; stroke-linejoin: miter; stroke-miterlimit: 4; fill: rgb(88,69,77); fill-rule: nonzero; opacity: 1;" vector-effect="non-scaling-stroke"  transform=" translate(-250, -250)" d="M 415.484 98.802 C 382.971 64.08100000000002 336.008 91.042 335.337 134.474 C 265.262 139.535 195.14999999999998 144.006 125.101 149.42999999999998 C 107.13499999999999 152.37999999999997 78.869 147.27499999999998 74.297 170.772 C 73.057 231.506 76.919 294.211 81.02799999999999 355.41700000000003 C 84.654 409.398 94.53599999999999 421.747 149.803 415.641 C 209.825 411.916 269.786 407.11400000000003 329.87 404.46700000000004 C 353.946 401.12300000000005 388.761 410.28000000000003 402.744 384.85900000000004 C 409.547 315.24700000000007 401.09400000000005 243.12200000000004 394.562 173.27000000000004 C 422.206 159.684 437.387 125.278 415.484 98.802 z" stroke-linecap="round" />
</g>
		<g transform="matrix(1.6 0 0 1.6 -20.62 40.75)"  >
<path style="stroke: none; stroke-width: 1; stroke-dasharray: none; stroke-linecap: butt; stroke-dashoffset: 0; stroke-linejoin: miter; stroke-miterlimit: 4; fill: rgb(248,199,149); fill-rule: nonzero; opacity: 1;" vector-effect="non-scaling-stroke"  transform=" translate(-237.11, -275.47)" d="M 77.043 200.22 C 77.043 200.22 71.14500000000001 162.706 86.72800000000001 157.188 C 102.31 151.67 338.879 137.146 338.879 137.146 C 343.60400000000004 162.48199999999997 368.06100000000004 173.035 390.68 169.56799999999998 L 390.68 180.47299999999998 L 290.435 263.59 L 393.594 377.06499999999994 C 393.594 377.06499999999994 399.587 382.36999999999995 398.015 386.6929999999999 C 396.443 391.0159999999999 394.675 396.5179999999999 367.95099999999996 398.6789999999999 C 341.22799999999995 400.8399999999999 127.49799999999996 416.73799999999994 112.66099999999997 413.3179999999999 C 97.82399999999998 409.8979999999999 91.65099999999997 395.92799999999994 91.65099999999997 395.92799999999994 C 123.19299999999997 356.94699999999995 182.42999999999995 300.3059999999999 214.40499999999997 267.2149999999999 L 77.043 200.22 z" stroke-linecap="round" />
</g>
		<g transform="matrix(1.6 0 0 1.6 -167.72 78.86)"  >
<path style="stroke: none; stroke-width: 1; stroke-dasharray: none; stroke-linecap: butt; stroke-dashoffset: 0; stroke-linejoin: miter; stroke-miterlimit: 4; fill: rgb(238,179,120); fill-rule: nonzero; opacity: 1;" vector-effect="non-scaling-stroke"  transform=" translate(-145.18, -299.29)" d="M 75.948 203.757 C 77.335 222.40200000000002 83.723 369.371 91.65199999999999 395.928 C 119.15299999999999 362.325 187.402 294.947 214.406 267.21500000000003 L 82.009 202.643 L 75.948 203.757 z" stroke-linecap="round" />
</g>
		<g transform="matrix(1.6 0 0 1.6 153.92 53.73)"  >
<path style="stroke: none; stroke-width: 1; stroke-dasharray: none; stroke-linecap: butt; stroke-dashoffset: 0; stroke-linejoin: miter; stroke-miterlimit: 4; fill: rgb(231,153,89); fill-rule: nonzero; opacity: 1;" vector-effect="non-scaling-stroke"  transform=" translate(-346.2, -283.58)" d="M 390.679 180.473 C 393.98999999999995 190.32100000000003 402.421 359.823 401.94199999999995 377.262 C 401.94499999999994 377.261 398.01499999999993 386.693 398.01499999999993 386.693 L 395.2029999999999 378.736 C 370.3929999999999 351.539 315.5959999999999 291.283 290.4339999999999 263.59 L 390.679 180.473 z" stroke-linecap="round" />
</g>
		<g transform="matrix(1.6 0 0 1.6 -166.04 78.15)"  >
<path style="stroke: none; stroke-width: 1; stroke-dasharray: none; stroke-linecap: butt; stroke-dashoffset: 0; stroke-linejoin: miter; stroke-miterlimit: 4; fill: rgb(231,154,89); fill-rule: nonzero; opacity: 1;" vector-effect="non-scaling-stroke"  transform=" translate(-146.23, -298.84)" d="M 78.493 207.617 C 92.503 218.95499999999998 176.256 240.426 164.94099999999997 278.392 C 147.01299999999998 334.531 121.86099999999998 351.554 89.72199999999998 384.76599999999996 L 92.22199999999998 395.044 C 120.19399999999999 359.888 182.67499999999998 299.274 213.96499999999997 267 C 197.65999999999997 259.109 94.88999999999997 208.652 81.04199999999997 202.642 C 81.042 202.643 78.322 204.844 78.493 207.617 z" stroke-linecap="round" />
</g>
		<g transform="matrix(1.6 0 0 1.6 142.43 58.99)"  >
<path style="stroke: none; stroke-width: 1; stroke-dasharray: none; stroke-linecap: butt; stroke-dashoffset: 0; stroke-linejoin: miter; stroke-miterlimit: 4; fill: rgb(238,179,120); fill-rule: nonzero; opacity: 1;" vector-effect="non-scaling-stroke"  transform=" translate(-339.02, -286.87)" d="M 300.817 264.081 C 317.98400000000004 242.89900000000003 370.202 210.59000000000003 373.541 280.533 C 376.938 317.922 379.027 335.899 375.16 335.85 C 371.292 335.801 299.115 270.172 300.817 264.081 z" stroke-linecap="round" />
</g>
		<g transform="matrix(1.6 0 0 1.6 209.78 -194.17)"  >
<path style="stroke: none; stroke-width: 1; stroke-dasharray: none; stroke-linecap: butt; stroke-dashoffset: 0; stroke-linejoin: miter; stroke-miterlimit: 4; fill: rgb(239,127,95); fill-rule: nonzero; opacity: 1;" vector-effect="non-scaling-stroke"  transform=" translate(-381.11, -128.64)" d="M 421.342 128.644 C 420.43899999999996 181.529 341.77299999999997 181.52100000000002 340.878 128.642 C 341.781 75.759 420.447 75.767 421.342 128.644 z" stroke-linecap="round" />
</g>
		<g transform="matrix(1.6 0 0 1.6 226.92 -186.66)"  >
<path style="stroke: none; stroke-width: 1; stroke-dasharray: none; stroke-linecap: butt; stroke-dashoffset: 0; stroke-linejoin: miter; stroke-miterlimit: 4; fill: rgb(232,96,66); fill-rule: nonzero; opacity: 1;" vector-effect="non-scaling-stroke"  transform=" translate(-391.82, -133.34)" d="M 361.306 165.467 C 374.847 136.854 433.034 140.96 405.123 95.99400000000001 C 446.673 125.25 405.473 189.332 361.306 165.467 z" stroke-linecap="round" />
</g>
		<g transform="matrix(1.6 0 0 1.6 195.62 185.76)"  >
<path style="stroke: none; stroke-width: 1; stroke-dasharray: none; stroke-linecap: butt; stroke-dashoffset: 0; stroke-linejoin: miter; stroke-miterlimit: 4; fill: rgb(245,178,120); fill-rule: nonzero; opacity: 1;" vector-effect="non-scaling-stroke"  transform=" translate(-372.26, -366.1)" d="M 348.66 397.5 C 357.487 384.737 367.091 367.228 361.02700000000004 351.276 C 358.88200000000006 345.729 353.97 340.82800000000003 353.88300000000004 334.69 C 383.813 373.199 433.621 397.979 348.66 397.5 z" stroke-linecap="round" />
</g>
		<g transform="matrix(1.6 0 0 1.6 173.55 -141.5)"  >
<path style="stroke: none; stroke-width: 1; stroke-dasharray: none; stroke-linecap: butt; stroke-dashoffset: 0; stroke-linejoin: miter; stroke-miterlimit: 4; fill: rgb(245,178,120); fill-rule: nonzero; opacity: 1;" vector-effect="non-scaling-stroke"  transform=" translate(-358.47, -161.56)" d="M 382.211 184.244 C 358.73 182.659 332.313 165.068 328.531 140.672 C 328.468 139.169 327.368 139.82399999999998 326.674 139.609 C 329.222 139.89000000000001 336.873 137.401 337.532 140.29000000000002 C 342.07399999999996 158.35600000000002 357.808 172.33700000000002 376.452 174.06600000000003 C 379.462 175.46700000000004 389.787 172.19900000000004 389.938 174.98000000000002 C 391.776 180.301 385.478 181.433 382.211 184.244 z" stroke-linecap="round" />
</g>
		<g transform="matrix(1.6 0 0 1.6 1.41 46.58)"  >
<path style="stroke: none; stroke-width: 1; stroke-dasharray: none; stroke-linecap: butt; stroke-dashoffset: 0; stroke-linejoin: miter; stroke-miterlimit: 4; fill: rgb(245,178,120); fill-rule: nonzero; opacity: 1;" vector-effect="non-scaling-stroke"  transform=" translate(-250.88, -279.12)" d="M 290.114 265.562 C 246.52399999999997 294.637 273.92699999999996 295.689 221.87099999999998 271.65700000000004 L 221.87099999999998 271.65700000000004 C 221.87099999999998 271.65700000000004 221.87099999999998 271.65700000000004 221.87099999999998 271.65700000000004 C 221.87099999999998 271.658 221.87099999999998 271.65900000000005 221.87099999999998 271.66 C 219.932 270.34700000000004 217.67799999999997 269.745 215.65399999999997 268.622 C 212.68699999999995 266.058 211.47999999999996 269.284 209.32499999999996 271.063 C 205.75199999999995 274.45599999999996 202.04899999999995 277.858 198.65499999999997 281.486 C 219.17199999999997 263.55899999999997 238.95499999999998 294.942 260.673 292.536 C 280.414 285.607 273.299 276.456 303.109 277.886 C 299.151 273.383 294.43 269.686 290.114 265.562 z" stroke-linecap="round" />
</g>
		<g transform="matrix(1.6 0 0 1.6 -271.28 -66.39)"  >
<path style="stroke: none; stroke-width: 1; stroke-dasharray: none; stroke-linecap: butt; stroke-dashoffset: 0; stroke-linejoin: miter; stroke-miterlimit: 4; fill: rgb(88,69,77); fill-rule: nonzero; opacity: 1;" vector-effect="non-scaling-stroke"  transform=" translate(-80.45, -208.51)" d="M 80.44 208.491 C 80.44 208.491 80.44 208.491 80.44 208.491 C 80.44 208.501 80.44 208.51000000000002 80.439 208.52 C 80.445 208.512 80.452 208.50900000000001 80.458 208.502 C 80.452 208.499 80.446 208.495 80.44 208.491 z" stroke-linecap="round" />
</g>
		<g transform="matrix(1.6 0 0 1.6 0 0)"  >
<path style="stroke: none; stroke-width: 1; stroke-dasharray: none; stroke-linecap: butt; stroke-dashoffset: 0; stroke-linejoin: miter; stroke-miterlimit: 4; fill: rgb(88,69,77); fill-rule: nonzero; opacity: 1;" vector-effect="non-scaling-stroke"  transform=" translate(-250, -250)" d="M 415.484 98.802 C 382.971 64.08100000000002 336.008 91.042 335.337 134.474 C 265.262 139.535 195.14999999999998 144.006 125.101 149.42999999999998 C 107.13499999999999 152.37999999999997 78.869 147.27499999999998 74.297 170.772 C 73.057 231.506 76.919 294.211 81.02799999999999 355.41700000000003 C 84.654 409.398 94.53599999999999 421.747 149.803 415.641 C 209.825 411.916 269.786 407.11400000000003 329.87 404.46700000000004 C 353.946 401.12300000000005 388.761 410.28000000000003 402.744 384.85900000000004 C 409.547 315.24700000000007 401.09400000000005 243.12200000000004 394.562 173.27000000000004 C 422.206 159.684 437.387 125.278 415.484 98.802 z M 79.602 198.39 C 75.65400000000001 165.32099999999997 81.061 155.06799999999998 115.775 155.54999999999998 C 189.448 151.623 263.015 145.53599999999997 336.656 141.07799999999997 C 353.243 188.08099999999996 389.095 167.20699999999997 388.002 178.40999999999997 C 343.867 210.97799999999995 302.414 252.80599999999998 258.089 283.97999999999996 C 198.67 255.861 137.943 227.114 79.602 198.39 z M 92.817 390.914 C 92.15199999999999 388.77 91.89299999999999 386.715 91.704 384.647 C 91.704 384.647 91.704 384.647 91.704 384.647 C 91.66 384.468 91.616 384.289 91.57199999999999 384.11 C 91.57199999999999 384.11 91.57199999999999 384.11 91.57199999999999 384.11 C 83.871 325.22900000000004 83.56799999999998 265.635 80.09299999999999 206.412 C 82.66399999999999 202.93200000000002 110.50899999999999 219.256 208.90699999999998 266.29 C 176.105 306.977 127.444 347.332 92.817 390.914 z M 394.985 386.587 C 382.954 400.863 352.945 394.24199999999996 335.606 396.63599999999997 C 282.639 398.27799999999996 229.831 402.76699999999994 177.018 406.924 C 154.224 406.263 109.791 421.015 96.095 398.964 C 93.598 395.388 93.673 395.411 96.491 392.047 C 133.227 350.951 172.19 311.66400000000004 211.34199999999998 272.93600000000004 C 213.433 271.21200000000005 214.593 268.09200000000004 217.469 270.57300000000004 C 219.428 271.66 221.611 272.24300000000005 223.488 273.514 C 223.488 273.51300000000003 223.488 273.512 223.488 273.511 C 223.488 273.511 223.488 273.511 223.488 273.511 L 223.488 273.511 C 267.178 292.67400000000004 249.845 299.297 288.055 267.543 C 312.805 285.993 333.17900000000003 314.185 355.028 337.145 L 355.028 337.145 C 362.693 347.944 395.317 376.665 394.985 386.587 z M 395.966 289.77 C 395.095 319.87199999999996 400.80400000000003 350.291 398.168 380.10299999999995 C 364.45 340.3419999999999 329.838 301.50499999999994 293.428 264.23799999999994 C 314.54 243.47099999999995 342.086 224.15399999999994 365.223 203.74999999999994 C 369.09700000000004 201.48199999999994 386.926 182.59899999999993 388.735 186.23999999999995 C 391.789 220.692 394.85 255.194 395.966 289.77 z M 419.126 128.862 C 410.76 198.52499999999998 310.44399999999996 160.295 353.27799999999996 103.565 C 375.498 77.122 420.717 94.233 419.126 128.862 z" stroke-linecap="round" />
</g>
</g>
</g>
</svg>