<?xml version="1.0" encoding="UTF-8"?>
<svg xmlns="http://www.w3.org/2000/svg" xmlns:xlink="http://www.w3.org/1999/xlink" width="200px" height="197px" viewBox="0 0 199 197" version="1.1">
<g id="surface1">
<path style=" stroke:none;fill-rule:nonzero;fill:rgb(93.333333%,23.921569%,54.901961%);fill-opacity:1;" d="M 192.160156 60.425781 C 191.273438 50.488281 191.285156 40.039062 187.402344 31.113281 C 181.546875 17.640625 167.738281 12.257812 154.300781 9.808594 C 119.019531 3.375 72.546875 -4.15625 38.585938 6.816406 C 23.394531 11.726562 17.582031 15.898438 8.738281 30.292969 C 3.433594 38.9375 5.886719 51.933594 6.238281 61.171875 C 6.351562 64.164062 6.273438 69.78125 5.523438 76.519531 C 5.523438 76.519531 148.679688 188.503906 148.683594 188.503906 C 148.683594 188.503906 148.679688 188.503906 148.675781 188.503906 C 148.679688 188.503906 148.683594 188.320312 148.683594 188.320312 C 161.957031 187.5625 176.105469 185.675781 184.320312 173.953125 C 192.476562 162.316406 192.019531 146.886719 193.671875 133.316406 C 195.070312 121.867188 196.1875 110.355469 196.410156 98.816406 C 196.585938 89.875 193.558594 76.21875 192.160156 60.425781 Z M 192.160156 60.425781 "/>
<path style=" stroke:none;fill-rule:nonzero;fill:rgb(94.901961%,41.568627%,3.529412%);fill-opacity:1;" d="M 146.289062 175.949219 C 135.472656 133.683594 125.609375 87.578125 84.324219 66.625 C 61.167969 54.867188 28.632812 60.332031 5.523438 76.519531 C 2.953125 91.925781 1.09375 113.167969 1.699219 122.1875 L 87.816406 193.800781 C 106.796875 194.386719 125.441406 189.488281 144.375 188.550781 C 145.835938 188.480469 147.183594 188.503906 148.679688 188.503906 L 148.6875 188.503906 C 148.109375 184.644531 147.300781 179.917969 146.289062 175.949219 Z M 146.289062 175.949219 "/>
<path style=" stroke:none;fill-rule:nonzero;fill:rgb(99.607843%,87.843137%,0%);fill-opacity:1;" d="M 1.042969 122.1875 C 2 136.441406 2.703125 150.890625 7.9375 164.34375 C 12.53125 176.152344 20.492188 186 31.636719 192.125 C 46.40625 200.246094 71.214844 193.292969 87.542969 193.800781 C 86.230469 178.554688 88.800781 166.320312 72.511719 143.292969 C 49.941406 111.375 0.828125 118.957031 1.042969 122.1875 Z M 1.042969 122.1875 "/>
<path style=" stroke:none;fill-rule:nonzero;fill:rgb(100%,100%,100%);fill-opacity:1;" d="M 141.53125 45.304688 C 138.152344 44.886719 131.777344 44.914062 127.769531 50.273438 C 125.589844 53.191406 123.136719 64.992188 136.402344 69.277344 C 140.878906 70.726562 147.828125 67.203125 149.746094 62.953125 C 154.414062 52.601562 146.265625 45.890625 141.53125 45.304688 Z M 141.53125 45.304688 "/>
<path style=" stroke:none;fill-rule:nonzero;fill:rgb(0%,0%,0%);fill-opacity:1;" d="M 107.503906 180.09375 C 95.28125 180.023438 83.09375 179.335938 70.867188 179.261719 C 58.449219 179.1875 42.675781 180.691406 32.9375 171.300781 C 22.585938 161.316406 24.703125 144.136719 23.308594 130.941406 C 21.738281 116.042969 20.355469 101.820312 21.847656 86.863281 C 22.640625 78.941406 22.898438 71.050781 23.105469 63.097656 C 23.273438 56.597656 22.964844 49.867188 25.613281 43.777344 C 30.972656 31.464844 41.988281 27.5625 54.332031 26.355469 C 67.019531 25.046875 79.730469 24.417969 92.476562 24.339844 C 110.058594 24.449219 127.644531 22.976562 145.222656 23.785156 C 151.019531 24.050781 156.332031 24.441406 161.628906 27.285156 C 170.445312 32.023438 176.820312 41.457031 177.34375 51.542969 C 177.921875 74.179688 174.980469 96.824219 177.195312 119.363281 C 178.234375 129.980469 177.828125 140.75 177.316406 151.390625 C 176.839844 161.28125 170.367188 170.097656 161.910156 174.878906 C 153.554688 179.605469 143.039062 178.800781 133.738281 179.492188 C 129.519531 179.75 125.207031 179.082031 120.953125 179.226562 C 116.464844 179.460938 112 180.007812 107.503906 180.09375 Z M 107.515625 173.695312 C 120.101562 173.378906 132.742188 172.191406 145.15625 170.289062 C 152.445312 169.175781 158.195312 168.609375 163.566406 162.941406 C 168.839844 157.375 169.117188 150.703125 169.371094 143.445312 C 169.964844 126.410156 169.535156 109.449219 169.117188 92.414062 C 168.925781 84.324219 169.042969 76.246094 169.042969 68.152344 C 169.046875 60.429688 170.230469 51.117188 166.664062 43.996094 C 161.34375 33.386719 151.738281 32.523438 141.40625 32.335938 C 124.691406 32.03125 108.171875 32.148438 91.484375 30.929688 C 81.714844 30.21875 72.21875 30.464844 62.480469 31.964844 C 54.371094 33.210938 43.394531 33.386719 36.875 38.859375 C 32.320312 42.691406 30.824219 47.28125 29.570312 52.664062 C 28.546875 61.929688 28.652344 71.464844 28.320312 80.773438 C 27.957031 91.085938 27.609375 101.429688 28.253906 111.734375 C 28.941406 122.664062 30.5 133.625 30.769531 144.570312 C 30.980469 153.164062 31.253906 162.355469 39.820312 166.953125 C 44.621094 169.523438 49.976562 169.035156 55.207031 169.3125 C 72.707031 170.234375 89.941406 173.421875 107.515625 173.695312 Z M 107.515625 173.695312 "/>
<path style=" stroke:none;fill-rule:nonzero;fill:rgb(0%,0%,0%);fill-opacity:1;" d="M 138.515625 101.511719 C 138.261719 105.777344 137.367188 109.945312 135.867188 113.945312 C 134.058594 118.765625 131.097656 122.816406 128.097656 126.945312 C 125.078125 131.105469 121.402344 134.621094 116.730469 136.832031 C 112.03125 139.058594 107 139.917969 101.851562 140.203125 C 85.628906 140.734375 70.695312 130.433594 63.878906 115.832031 C 60.664062 108.9375 59.210938 101.273438 60.734375 93.75 C 62.191406 86.558594 65.9375 79.757812 70.742188 74.273438 C 74.054688 70.496094 77.84375 67.183594 82.757812 65.90625 C 85.09375 65.140625 87.285156 63.914062 89.628906 63.125 C 92.347656 62.210938 95.15625 61.554688 98.003906 61.234375 C 105.160156 60.4375 112.03125 61.875 118.265625 65.59375 C 121.519531 67.480469 124.214844 70.640625 126.574219 73.503906 C 129.101562 76.578125 131.242188 79.882812 133.253906 83.308594 C 135.945312 89.066406 138.617188 94.976562 138.515625 101.511719 Z M 131.054688 101.300781 C 130.613281 91.976562 127.269531 83.441406 119.726562 77.589844 C 114.117188 73.238281 104.039062 70.53125 99.683594 70.53125 C 95.332031 70.53125 90.871094 71.097656 86.710938 73.117188 C 83.941406 74.460938 81.097656 75.941406 78.640625 77.816406 C 71.753906 83.082031 67.480469 91.136719 66.925781 99.777344 C 66.359375 108.527344 70.070312 117.375 76.429688 123.320312 C 82.851562 129.324219 92.96875 132.722656 102.84375 132.328125 C 105.25 132.230469 107.707031 131.550781 109.980469 130.777344 C 114.445312 129.253906 118.453125 126.738281 121.828125 123.4375 C 127.570312 117.824219 130.503906 108.9375 131.0625 101.03125 C 131.058594 101.109375 131.058594 101.21875 131.054688 101.300781 Z M 131.054688 101.300781 "/>
<path style=" stroke:none;fill-rule:nonzero;fill:rgb(0%,0%,0%);fill-opacity:1;" d="M 159.585938 52.710938 C 158.921875 45.882812 153.5 40.199219 146.890625 38.777344 C 144.105469 38.289062 141.5625 38.175781 138.816406 39 C 135.535156 39.984375 132.429688 41.5625 130.152344 44.1875 C 126.886719 47.941406 126.023438 53.300781 127.386719 58.027344 C 128.953125 63.464844 133.390625 67.3125 138.589844 69.136719 C 140.082031 69.664062 141.457031 70.101562 143.078125 70.097656 C 146.644531 70.085938 150.515625 68.6875 153.496094 66.757812 C 158.097656 63.785156 160.109375 58.074219 159.585938 52.710938 Z M 152.644531 59.691406 C 152.835938 59.214844 152.410156 59.953125 152.375 59.996094 C 152.03125 60.445312 151.625 60.882812 151.230469 61.292969 C 150.226562 62.339844 148.980469 63.199219 147.695312 63.863281 C 145.804688 64.839844 143.710938 65.351562 141.617188 64.882812 C 138.804688 64.070312 135.980469 62.589844 134.164062 60.257812 C 131.621094 56.996094 131.488281 51.867188 133.492188 48.253906 C 134.78125 46.433594 136.613281 44.609375 138.820312 44.007812 C 141.246094 43.347656 143.742188 43.492188 146.191406 43.898438 C 149.925781 45.441406 153.539062 48.929688 154.117188 53.082031 C 154.484375 55.71875 153.566406 57.402344 152.644531 59.691406 Z M 152.644531 59.691406 "/>
</g>
</svg>
