<?xml version="1.0" encoding="UTF-8"?>
<svg xmlns="http://www.w3.org/2000/svg" xmlns:xlink="http://www.w3.org/1999/xlink" width="200px" height="200px" viewBox="0 0 200 200" version="1.1">
<g id="surface1">
<path style=" stroke:none;fill-rule:nonzero;fill:rgb(83.921569%,89.803922%,89.803922%);fill-opacity:1;" d="M 62.664062 42.5625 C 58.636719 40.882812 53.324219 41.351562 49.574219 43.578125 C 47.425781 44.867188 45.46875 46.78125 45.039062 49.398438 C 44.53125 52.683594 45.976562 55.691406 48.480469 57.839844 C 48.871094 58.152344 49.066406 58.542969 49.183594 58.894531 C 52.582031 60.300781 56.371094 61.589844 59.886719 60.535156 C 62.898438 59.597656 65.632812 57.605469 66.6875 54.558594 C 68.210938 50.027344 67.390625 44.515625 62.664062 42.5625 Z M 154.878906 105.550781 C 154.722656 97.460938 154.175781 88.863281 150.5 81.480469 C 146.867188 74.171875 140.03125 69.445312 131.941406 68.390625 C 124.4375 67.414062 116.273438 69.25 110.957031 74.875 C 110.097656 75.773438 109.003906 75.695312 108.222656 75.1875 L 108.183594 75.1875 C 106.816406 74.757812 106.191406 73.78125 105.683594 72.53125 C 105.410156 71.867188 105.175781 71.203125 104.863281 70.539062 C 104.785156 70.421875 104.746094 70.34375 104.707031 70.265625 C 104.550781 70.226562 104.355469 70.226562 104.199219 70.1875 C 101.816406 70.03125 99.351562 70.5 96.96875 70.539062 C 94.46875 70.539062 92.007812 70.617188 89.507812 70.8125 C 88.21875 70.929688 86.886719 71.007812 85.636719 71.359375 C 85.207031 71.476562 84.738281 71.59375 84.308594 71.789062 C 84.230469 71.945312 84.152344 72.0625 84.074219 72.179688 C 84.347656 77.496094 85.636719 82.652344 86.417969 87.886719 C 87.359375 94.023438 87.59375 100.351562 88.101562 106.527344 C 88.882812 116.53125 89.078125 126.492188 89.078125 136.496094 C 95.796875 136.574219 102.519531 137.121094 109.199219 137.511719 L 109.199219 137.199219 C 109.160156 137.121094 109.160156 137.042969 109.121094 136.964844 C 108.730469 135.988281 109.082031 135.167969 109.746094 134.660156 C 110.449219 127.390625 110.605469 119.96875 110.371094 112.699219 C 110.097656 105.082031 108.496094 97.578125 108.457031 89.960938 C 108.457031 89.019531 108.925781 88.355469 109.589844 88.003906 C 109.589844 83.941406 114.28125 81.949219 117.914062 81.285156 C 122.5625 80.425781 128.503906 80.855469 131.824219 84.644531 C 134.128906 87.300781 134.128906 91.679688 134.285156 95 C 134.480469 99.726562 134.480469 104.496094 134.871094 109.222656 C 135.105469 111.839844 135.378906 114.535156 135.261719 117.15625 C 135.144531 119.460938 134.910156 121.726562 134.832031 124.03125 C 134.753906 126.257812 134.714844 128.523438 134.519531 130.753906 C 134.363281 132.238281 133.933594 133.800781 133.660156 135.285156 C 140.617188 135.089844 147.570312 134.269531 154.527344 134.152344 C 154.761719 133.957031 154.996094 133.839844 155.347656 133.800781 C 155.269531 124.460938 155.074219 115.003906 154.878906 105.550781 Z M 73.5625 126.609375 C 73.328125 122.546875 73.5625 118.484375 73.445312 114.457031 C 73.132812 105.472656 72.078125 96.523438 70.59375 87.613281 C 70.085938 84.449219 69.8125 81.480469 69.695312 78.277344 C 69.65625 76.949219 69.773438 74.445312 68.25 73.820312 C 66.960938 73.273438 65.398438 73.585938 64.070312 73.78125 C 62.078125 74.015625 60.121094 74.289062 58.167969 74.5625 C 54.691406 74.992188 51.214844 75.34375 47.699219 75.304688 C 48.519531 84.371094 49.730469 93.398438 50.355469 102.464844 C 51.175781 113.988281 51.058594 125.554688 51.527344 137.121094 C 55.511719 136.222656 60.042969 137.003906 63.914062 137.277344 C 65.59375 137.394531 67.3125 137.433594 68.992188 137.472656 C 69.96875 137.511719 70.945312 137.511719 71.921875 137.511719 C 72.3125 137.511719 72.703125 137.472656 73.09375 137.472656 C 73.171875 137.433594 73.25 137.355469 73.367188 137.316406 C 74.464844 133.917969 73.761719 130.011719 73.5625 126.609375 Z M 73.5625 126.609375 "/>
<path style=" stroke:none;fill-rule:nonzero;fill:rgb(29.411765%,48.235294%,69.803922%);fill-opacity:1;" d="M 186.253906 112.503906 C 185.902344 102.34375 184.261719 92.183594 181.09375 82.492188 C 174.882812 63.347656 163.355469 45.882812 147.140625 33.808594 C 117.050781 11.417969 68.40625 3.054688 39.335938 31.542969 C 25.855469 44.75 18.078125 63.855469 15.265625 82.296875 C 12.449219 100.820312 14.25 120.589844 22.882812 137.433594 C 37.144531 165.214844 67.9375 186.546875 99.46875 185.453125 C 99.78125 185.335938 100.132812 185.335938 100.523438 185.414062 C 101.109375 185.375 101.65625 185.335938 102.242188 185.296875 C 102.671875 185.375 103.101562 185.414062 103.53125 185.453125 C 103.882812 185.375 104.273438 185.335938 104.585938 185.296875 C 106.230469 185.140625 107.871094 185.023438 109.511719 184.828125 C 112.519531 184.398438 115.488281 183.34375 118.539062 183.421875 C 119.359375 183.265625 120.179688 183.070312 120.960938 182.953125 C 121.078125 182.953125 121.15625 182.914062 121.234375 182.875 C 122.914062 182.523438 124.59375 182.132812 126.273438 181.742188 C 129.789062 180.921875 133.269531 179.945312 136.667969 178.773438 C 143.308594 176.46875 149.796875 173.496094 155.734375 169.667969 C 167.066406 162.402344 176.679688 152.320312 181.835938 139.699219 C 185.394531 130.945312 186.566406 121.800781 186.253906 112.503906 Z M 46.523438 40.410156 C 51.835938 37.050781 59.535156 35.996094 65.238281 39.003906 C 67.9375 40.410156 70.28125 42.792969 71.0625 45.804688 C 71.960938 49.359375 71.804688 53.890625 70.203125 57.253906 C 68.289062 61.199219 64.378906 64.050781 60.082031 64.832031 C 54.769531 65.808594 49.765625 63.777344 44.960938 61.707031 C 43.789062 61.199219 43.554688 60.105469 43.90625 59.207031 C 39.140625 53.460938 39.726562 44.75 46.523438 40.410156 Z M 77.117188 139.269531 C 76.960938 139.738281 76.6875 140.050781 76.375 140.246094 C 75.085938 142.667969 68.171875 141.691406 66.375 141.613281 C 63.636719 141.535156 60.941406 141.183594 58.207031 141.066406 C 55.824219 140.949219 53.207031 140.832031 50.9375 141.691406 C 50.820312 141.769531 50.703125 141.808594 50.546875 141.847656 C 50.507812 141.847656 50.507812 141.886719 50.46875 141.886719 C 49.882812 142.160156 49.375 142.121094 48.945312 141.964844 C 48.046875 141.730469 47.34375 141.027344 47.265625 140.050781 C 46.640625 127.429688 46.914062 114.769531 45.9375 102.1875 C 45.234375 92.730469 43.945312 83.277344 43.164062 73.820312 C 43.125 73.351562 43.203125 72.960938 43.398438 72.648438 C 43.4375 71.671875 44.0625 70.851562 45.3125 70.890625 C 50.234375 71.125 55.082031 70.578125 59.964844 69.914062 C 63.089844 69.484375 67.507812 68.269531 70.4375 70.070312 C 75.320312 73.078125 73.640625 80.109375 74.460938 84.957031 C 76.140625 94.839844 77.429688 104.804688 77.703125 114.847656 C 77.820312 119.300781 77.664062 123.71875 77.9375 128.132812 C 78.210938 131.882812 78.445312 135.675781 77.117188 139.269531 Z M 157.609375 138.136719 L 157.257812 138.136719 C 156.945312 138.371094 156.554688 138.527344 156.046875 138.527344 C 147.960938 138.566406 139.910156 139.660156 131.824219 139.699219 L 131.628906 139.699219 C 131.039062 139.855469 130.375 139.738281 129.828125 139.191406 L 129.046875 138.410156 C 127.875 137.238281 128.421875 135.636719 129.4375 134.929688 C 129.632812 133.992188 129.867188 133.054688 129.984375 132.078125 C 130.257812 130.007812 130.375 127.9375 130.414062 125.867188 C 130.53125 121.917969 131.078125 117.972656 130.84375 114.027344 C 130.609375 109.964844 130.257812 105.9375 130.101562 101.875 C 129.984375 97.890625 130.101562 93.824219 129.359375 89.917969 C 128.578125 85.894531 124.242188 85.191406 120.6875 85.464844 C 118.851562 85.582031 116.972656 85.933594 115.292969 86.753906 C 114.707031 87.066406 114.199219 87.417969 113.886719 87.847656 C 113.808594 87.964844 113.769531 88.199219 113.730469 88.121094 C 113.964844 89.214844 113.457031 90.113281 112.675781 90.582031 C 112.832031 98.4375 114.628906 106.171875 114.628906 114.066406 C 114.628906 121.683594 114.628906 129.34375 113.808594 136.925781 C 113.769531 137.160156 113.691406 137.394531 113.574219 137.589844 C 113.652344 138.332031 113.652344 139.074219 113.652344 139.816406 C 113.652344 140.871094 112.910156 142.199219 111.660156 142.121094 C 103.84375 141.730469 96.03125 140.988281 88.214844 140.949219 L 87.941406 140.949219 C 86.691406 141.691406 84.738281 141.261719 84.738281 139.386719 C 84.738281 128.5625 84.582031 117.855469 83.722656 107.070312 C 83.253906 100.859375 83.058594 94.566406 82.042969 88.433594 C 81.105469 82.652344 79.699219 76.90625 79.621094 71.046875 C 79.621094 69.914062 80.324219 69.207031 81.144531 68.933594 C 82.550781 67.527344 85.128906 67.214844 86.925781 66.980469 C 89.894531 66.589844 92.945312 66.472656 95.914062 66.472656 C 98.765625 66.433594 101.617188 65.964844 104.46875 66.160156 C 105.996094 66.277344 107.402344 66.707031 108.183594 68.113281 C 108.613281 68.894531 109.003906 69.679688 109.316406 70.539062 C 109.316406 70.578125 109.355469 70.617188 109.355469 70.65625 C 121.859375 59.675781 143.855469 62.761719 152.6875 77.023438 C 157.53125 84.839844 158.746094 94.214844 159.019531 103.242188 C 159.175781 107.890625 159.019531 112.542969 159.214844 117.230469 C 159.488281 123.523438 159.488281 129.773438 159.488281 136.066406 C 159.605469 136.964844 158.863281 138.136719 157.609375 138.136719 Z M 157.609375 138.136719 "/>
<path style=" stroke:none;fill-rule:nonzero;fill:rgb(0%,0%,0%);fill-opacity:1;" d="M 188.167969 94.410156 C 186.292969 84.527344 183.050781 74.914062 178.558594 65.886719 C 169.609375 47.914062 155.542969 32.949219 137.921875 23.257812 C 120.882812 13.878906 101.191406 8.605469 81.691406 9.582031 C 62.234375 10.597656 44.101562 19.117188 31.5625 34.160156 C 19.644531 48.460938 13 67.371094 10.8125 85.660156 C 8.585938 104.179688 11.164062 123.757812 19.996094 140.324219 C 35.234375 168.964844 67.195312 190.613281 100.058594 189.242188 C 102.519531 189.792969 105.371094 189.046875 107.832031 188.851562 C 109.550781 188.695312 111.273438 188.421875 112.953125 188.109375 C 113.109375 188.070312 113.304688 188.03125 113.460938 187.992188 L 113.8125 187.992188 C 115.453125 187.796875 117.132812 187.523438 118.773438 187.25 L 118.851562 187.25 C 119.359375 187.289062 119.75 187.210938 120.101562 186.976562 C 123.226562 186.351562 126.316406 185.609375 129.402344 184.867188 C 133.738281 183.773438 138 182.40625 142.179688 180.765625 C 150.308594 177.601562 158.003906 173.222656 164.882812 167.832031 C 178.519531 157.046875 187.738281 141.613281 189.773438 124.226562 C 190.90625 114.417969 190.007812 104.140625 188.167969 94.410156 Z M 181.878906 139.621094 C 176.761719 152.203125 167.109375 162.28125 155.777344 169.589844 C 149.835938 173.417969 143.351562 176.390625 136.707031 178.695312 C 133.308594 179.867188 129.832031 180.84375 126.316406 181.664062 C 124.636719 182.054688 122.953125 182.445312 121.273438 182.796875 C 121.195312 182.835938 121.117188 182.875 121 182.875 C 120.179688 183.03125 119.359375 183.1875 118.578125 183.34375 C 115.53125 183.226562 112.5625 184.320312 109.550781 184.75 C 107.910156 184.984375 106.269531 185.0625 104.628906 185.21875 C 104.316406 185.257812 103.925781 185.296875 103.574219 185.375 C 103.144531 185.335938 102.714844 185.296875 102.285156 185.21875 C 101.699219 185.257812 101.152344 185.296875 100.566406 185.335938 C 100.175781 185.257812 99.824219 185.257812 99.511719 185.375 C 67.9375 186.46875 37.148438 165.136719 22.925781 137.355469 C 14.25 120.511719 12.453125 100.78125 15.265625 82.257812 C 18.078125 63.816406 25.855469 44.710938 39.335938 31.503906 C 68.40625 3.054688 117.09375 11.378906 147.140625 33.769531 C 163.359375 45.84375 174.882812 63.347656 181.097656 82.453125 C 184.261719 92.144531 185.902344 102.304688 186.253906 112.464844 C 186.566406 121.800781 185.394531 130.945312 181.878906 139.621094 Z M 181.878906 139.621094 "/>
<path style=" stroke:none;fill-rule:nonzero;fill:rgb(0%,0%,0%);fill-opacity:1;" d="M 77.792969 128.171875 C 77.519531 123.757812 77.675781 119.339844 77.558594 114.886719 C 77.285156 104.84375 75.996094 94.882812 74.316406 84.996094 C 73.496094 80.148438 75.175781 73.117188 70.292969 70.109375 C 67.363281 68.3125 62.945312 69.523438 59.820312 69.953125 C 54.9375 70.617188 50.089844 71.164062 45.167969 70.929688 C 43.917969 70.851562 43.292969 71.710938 43.253906 72.6875 C 43.097656 73 42.980469 73.390625 43.019531 73.859375 C 43.839844 83.316406 45.089844 92.730469 45.792969 102.226562 C 46.730469 114.808594 46.496094 127.46875 47.121094 140.089844 C 47.160156 141.066406 47.902344 141.769531 48.800781 142.003906 C 49.230469 142.199219 49.738281 142.199219 50.324219 141.925781 C 50.363281 141.925781 50.363281 141.886719 50.402344 141.886719 C 50.519531 141.847656 50.675781 141.808594 50.792969 141.730469 C 53.058594 140.871094 55.679688 141.027344 58.0625 141.105469 C 60.796875 141.222656 63.492188 141.574219 66.226562 141.652344 C 68.027344 141.691406 74.941406 142.667969 76.230469 140.285156 C 76.542969 140.089844 76.816406 139.777344 76.972656 139.308594 C 78.261719 135.675781 78.027344 131.882812 77.792969 128.171875 Z M 73.144531 137.238281 C 73.066406 137.277344 72.949219 137.316406 72.871094 137.394531 C 72.480469 137.433594 72.089844 137.433594 71.699219 137.433594 C 70.722656 137.472656 69.746094 137.433594 68.769531 137.394531 C 67.089844 137.355469 65.367188 137.316406 63.6875 137.199219 C 59.820312 136.925781 55.25 136.144531 51.300781 137.042969 C 50.832031 125.515625 50.949219 113.910156 50.128906 102.382812 C 49.503906 93.316406 48.292969 84.292969 47.472656 75.226562 C 50.988281 75.265625 54.46875 74.914062 57.945312 74.484375 C 59.9375 74.25 61.890625 73.9375 63.84375 73.703125 C 65.171875 73.546875 66.734375 73.234375 68.027344 73.742188 C 69.550781 74.367188 69.433594 76.867188 69.472656 78.195312 C 69.589844 81.402344 69.863281 84.371094 70.371094 87.535156 C 71.855469 96.40625 72.871094 105.351562 73.222656 114.378906 C 73.378906 118.441406 73.144531 122.507812 73.339844 126.53125 C 73.574219 130.007812 74.277344 133.917969 73.144531 137.238281 Z M 159.144531 116.996094 C 158.949219 112.347656 159.105469 107.699219 158.949219 103.007812 C 158.675781 93.984375 157.425781 84.605469 152.621094 76.789062 C 143.789062 62.527344 121.832031 59.441406 109.289062 70.421875 C 109.289062 70.382812 109.25 70.34375 109.25 70.304688 C 108.898438 69.484375 108.546875 68.664062 108.117188 67.882812 C 107.335938 66.472656 105.925781 66.042969 104.402344 65.925781 C 101.550781 65.730469 98.699219 66.199219 95.847656 66.238281 C 92.835938 66.277344 89.828125 66.355469 86.859375 66.746094 C 85.101562 66.980469 82.523438 67.335938 81.078125 68.703125 C 80.21875 68.976562 79.511719 69.71875 79.550781 70.8125 C 79.628906 76.710938 81.039062 82.417969 81.976562 88.199219 C 82.992188 94.335938 83.148438 100.664062 83.65625 106.835938 C 84.515625 117.621094 84.671875 128.367188 84.671875 139.152344 C 84.671875 141.027344 86.625 141.457031 87.875 140.714844 L 88.148438 140.714844 C 95.964844 140.753906 103.777344 141.496094 111.59375 141.886719 C 112.804688 141.964844 113.585938 140.636719 113.585938 139.582031 C 113.585938 138.839844 113.585938 138.097656 113.507812 137.355469 C 113.625 137.160156 113.742188 136.925781 113.742188 136.691406 C 114.5625 129.109375 114.5625 121.453125 114.5625 113.832031 C 114.5625 105.976562 112.804688 98.203125 112.609375 90.347656 C 113.351562 89.878906 113.898438 88.980469 113.664062 87.886719 C 113.703125 87.964844 113.742188 87.730469 113.820312 87.613281 C 114.132812 87.183594 114.640625 86.832031 115.226562 86.519531 C 116.90625 85.699219 118.742188 85.347656 120.621094 85.230469 C 124.175781 84.957031 128.550781 85.660156 129.292969 89.683594 C 130.035156 93.589844 129.917969 97.65625 130.035156 101.640625 C 130.152344 105.703125 130.503906 109.730469 130.777344 113.792969 C 131.011719 117.738281 130.464844 121.6875 130.347656 125.632812 C 130.269531 127.703125 130.152344 129.773438 129.917969 131.84375 C 129.800781 132.820312 129.566406 133.761719 129.371094 134.699219 C 128.355469 135.402344 127.808594 137.003906 128.980469 138.175781 L 129.761719 138.957031 C 130.308594 139.503906 130.972656 139.621094 131.558594 139.464844 L 131.753906 139.464844 C 139.84375 139.425781 147.894531 138.332031 155.980469 138.292969 C 156.488281 138.292969 156.878906 138.136719 157.191406 137.902344 L 157.542969 137.902344 C 158.792969 137.902344 159.539062 136.691406 159.539062 135.597656 C 159.421875 129.578125 159.382812 123.289062 159.144531 116.996094 Z M 154.300781 134.269531 C 147.347656 134.386719 140.390625 135.207031 133.4375 135.402344 C 133.710938 133.878906 134.140625 132.351562 134.296875 130.867188 C 134.492188 128.640625 134.570312 126.414062 134.609375 124.148438 C 134.6875 121.84375 134.960938 119.574219 135.039062 117.269531 C 135.15625 114.613281 134.882812 111.957031 134.648438 109.339844 C 134.257812 104.609375 134.257812 99.882812 134.0625 95.117188 C 133.90625 91.792969 133.90625 87.457031 131.597656 84.761719 C 128.277344 80.972656 122.339844 80.542969 117.6875 81.402344 C 114.054688 82.066406 109.367188 84.058594 109.367188 88.121094 C 108.703125 88.472656 108.234375 89.136719 108.234375 90.074219 C 108.273438 97.695312 109.914062 105.195312 110.148438 112.816406 C 110.382812 120.085938 110.265625 127.507812 109.523438 134.777344 C 108.898438 135.285156 108.546875 136.066406 108.898438 137.082031 C 108.9375 137.160156 108.9375 137.238281 108.976562 137.316406 L 108.976562 137.628906 C 102.253906 137.238281 95.574219 136.691406 88.851562 136.613281 C 88.8125 126.609375 88.617188 116.644531 87.875 106.640625 C 87.40625 100.429688 87.171875 94.140625 86.195312 88.003906 C 85.375 82.769531 84.125 77.570312 83.851562 72.296875 C 83.929688 72.179688 84.046875 72.0625 84.085938 71.90625 C 84.515625 71.710938 84.984375 71.59375 85.414062 71.476562 C 86.664062 71.164062 87.992188 71.046875 89.28125 70.929688 C 91.742188 70.695312 94.246094 70.65625 96.746094 70.65625 C 99.167969 70.65625 101.589844 70.148438 103.972656 70.304688 C 104.128906 70.304688 104.324219 70.34375 104.480469 70.382812 C 104.519531 70.460938 104.597656 70.539062 104.636719 70.65625 C 104.949219 71.28125 105.183594 71.984375 105.457031 72.648438 C 106.003906 73.9375 106.59375 74.914062 107.960938 75.304688 L 108 75.304688 C 108.820312 75.8125 109.914062 75.890625 110.734375 74.992188 C 116.046875 69.367188 124.214844 67.53125 131.714844 68.507812 C 139.765625 69.5625 146.605469 74.289062 150.277344 81.597656 C 153.949219 88.980469 154.496094 97.539062 154.652344 105.664062 C 154.847656 115.121094 155.042969 124.578125 155.042969 133.996094 C 154.769531 133.957031 154.496094 134.113281 154.300781 134.269531 Z M 70.878906 45.84375 C 70.097656 42.796875 67.753906 40.449219 65.054688 39.042969 C 59.351562 36.035156 51.652344 37.050781 46.339844 40.449219 C 39.539062 44.789062 38.953125 53.460938 43.683594 59.285156 C 43.332031 60.222656 43.566406 61.277344 44.738281 61.785156 C 49.542969 63.855469 54.546875 65.886719 59.859375 64.910156 C 64.15625 64.089844 68.066406 61.238281 69.980469 57.332031 C 71.621094 53.890625 71.777344 49.398438 70.878906 45.84375 Z M 66.460938 54.519531 C 65.40625 57.605469 62.671875 59.597656 59.664062 60.496094 C 56.148438 61.589844 52.355469 60.300781 48.957031 58.855469 C 48.878906 58.464844 48.644531 58.113281 48.253906 57.800781 C 45.792969 55.691406 44.308594 52.679688 44.816406 49.359375 C 45.246094 46.742188 47.160156 44.867188 49.347656 43.539062 C 53.097656 41.3125 58.414062 40.839844 62.4375 42.523438 C 67.207031 44.515625 68.027344 50.023438 66.460938 54.519531 Z M 66.460938 54.519531 "/>
</g>
</svg>
