<?xml version="1.0" encoding="UTF-8" standalone="no" ?>
<!DOCTYPE svg PUBLIC "-//W3C//DTD SVG 1.1//EN" "http://www.w3.org/Graphics/SVG/1.1/DTD/svg11.dtd">
<svg xmlns="http://www.w3.org/2000/svg" xmlns:xlink="http://www.w3.org/1999/xlink" version="1.1" width="1080" height="1080" viewBox="0 0 1080 1080" xml:space="preserve">
<desc>Created with Fabric.js 5.2.4</desc>
<defs>
</defs>
<g transform="matrix(1 0 0 1 540 540)" id="0b8740c7-ebff-4af3-babe-a2f713ab000e"  >
</g>
<g transform="matrix(1 0 0 1 540 540)" id="195137da-d748-46cb-b176-905a10b8d009"  >
<rect style="stroke: none; stroke-width: 1; stroke-dasharray: none; stroke-linecap: butt; stroke-dashoffset: 0; stroke-linejoin: miter; stroke-miterlimit: 4; fill: rgb(255,255,255); fill-rule: nonzero; opacity: 1; visibility: hidden;" vector-effect="non-scaling-stroke"  x="-540" y="-540" rx="0" ry="0" width="1080" height="1080" />
</g>
<g transform="matrix(2.11 0 0 2.11 540.77 483.48)"  >
<path style="stroke: none; stroke-width: 1; stroke-dasharray: none; stroke-linecap: butt; stroke-dashoffset: 0; stroke-linejoin: miter; stroke-miterlimit: 4; fill: rgb(214,229,229); fill-rule: nonzero; opacity: 1;" vector-effect="non-scaling-stroke"  transform=" translate(-281.32, -229.21)" d="M 185.4 109 C 175.1 104.7 161.5 105.9 151.9 111.6 C 146.4 114.89999999999999 141.4 119.8 140.3 126.5 C 139 134.9 142.70000000000002 142.6 149.10000000000002 148.1 C 150.10000000000002 148.9 150.60000000000002 149.9 150.90000000000003 150.79999999999998 C 159.60000000000002 154.39999999999998 169.30000000000004 157.7 178.30000000000004 154.99999999999997 C 186.00000000000003 152.59999999999997 193.00000000000003 147.49999999999997 195.70000000000005 139.69999999999996 C 199.60000000000005 128.09999999999997 197.50000000000006 113.99999999999996 185.40000000000003 108.99999999999996 z M 421.4 270.2 C 421 249.5 419.59999999999997 227.5 410.2 208.6 C 400.9 189.9 383.4 177.79999999999998 362.7 175.1 C 343.5 172.6 322.59999999999997 177.29999999999998 309 191.7 C 306.8 194 304 193.79999999999998 302 192.5 L 301.9 192.5 C 298.4 191.4 296.79999999999995 188.9 295.5 185.7 C 294.8 184 294.2 182.29999999999998 293.4 180.6 C 293.2 180.29999999999998 293.09999999999997 180.1 293 179.9 C 292.6 179.8 292.1 179.8 291.7 179.70000000000002 C 285.59999999999997 179.3 279.3 180.50000000000003 273.2 180.60000000000002 C 266.8 180.60000000000002 260.5 180.8 254.1 181.3 C 250.79999999999998 181.60000000000002 247.4 181.8 244.2 182.70000000000002 C 243.1 183.00000000000003 241.89999999999998 183.3 240.79999999999998 183.8 C 240.6 184.20000000000002 240.39999999999998 184.5 240.2 184.8 C 240.89999999999998 198.4 244.2 211.60000000000002 246.2 225 C 248.6 240.7 249.2 256.9 250.5 272.7 C 252.5 298.3 253 323.8 253 349.4 C 270.2 349.59999999999997 287.4 351 304.5 352 L 304.5 351.2 C 304.4 351 304.4 350.8 304.3 350.59999999999997 C 303.3 348.09999999999997 304.2 345.99999999999994 305.90000000000003 344.7 C 307.70000000000005 326.09999999999997 308.1 307.09999999999997 307.50000000000006 288.5 C 306.80000000000007 269 302.70000000000005 249.8 302.6000000000001 230.3 C 302.6000000000001 227.9 303.80000000000007 226.20000000000002 305.50000000000006 225.3 C 305.50000000000006 214.9 317.50000000000006 209.8 326.80000000000007 208.10000000000002 C 338.70000000000005 205.90000000000003 353.9000000000001 207.00000000000003 362.4000000000001 216.70000000000002 C 368.30000000000007 223.50000000000003 368.30000000000007 234.70000000000002 368.7000000000001 243.20000000000002 C 369.2000000000001 255.3 369.2000000000001 267.5 370.2000000000001 279.6 C 370.8000000000001 286.3 371.5000000000001 293.20000000000005 371.2000000000001 299.90000000000003 C 370.9000000000001 305.8 370.3000000000001 311.6 370.1000000000001 317.50000000000006 C 369.9000000000001 323.20000000000005 369.80000000000007 329.00000000000006 369.30000000000007 334.70000000000005 C 368.9000000000001 338.50000000000006 367.80000000000007 342.50000000000006 367.1000000000001 346.30000000000007 C 384.9000000000001 345.80000000000007 402.7000000000001 343.70000000000005 420.50000000000006 343.4000000000001 C 421.1000000000001 342.9000000000001 421.70000000000005 342.6000000000001 422.6000000000001 342.5000000000001 C 422.4000000000001 318.60000000000014 421.9000000000001 294.4000000000001 421.4000000000001 270.2000000000001 z M 213.3 324.1 C 212.70000000000002 313.70000000000005 213.3 303.3 213 293 C 212.2 270 209.5 247.1 205.7 224.3 C 204.39999999999998 216.20000000000002 203.7 208.60000000000002 203.39999999999998 200.4 C 203.29999999999998 197 203.59999999999997 190.6 199.7 189 C 196.39999999999998 187.6 192.39999999999998 188.4 189 188.9 C 183.9 189.5 178.9 190.20000000000002 173.9 190.9 C 165 192 156.1 192.9 147.1 192.8 C 149.2 216 152.29999999999998 239.10000000000002 153.9 262.3 C 156 291.8 155.70000000000002 321.40000000000003 156.9 351 C 167.1 348.7 178.70000000000002 350.7 188.6 351.4 C 192.9 351.7 197.29999999999998 351.79999999999995 201.6 351.9 C 204.1 352 206.6 352 209.1 352 C 210.1 352 211.1 351.9 212.1 351.9 C 212.29999999999998 351.79999999999995 212.5 351.59999999999997 212.79999999999998 351.5 C 215.6 342.8 213.79999999999998 332.8 213.29999999999998 324.1 z" stroke-linecap="round" />
</g>
<g transform="matrix(2.11 0 0 2.11 540.91 537)"  >
<path style="stroke: none; stroke-width: 1; stroke-dasharray: none; stroke-linecap: butt; stroke-dashoffset: 0; stroke-linejoin: miter; stroke-miterlimit: 4; fill: rgb(75,123,178); fill-rule: nonzero; opacity: 1;" vector-effect="non-scaling-stroke"  transform=" translate(-281.39, -254.58)" d="M 501.7 288 C 500.8 262 496.59999999999997 236 488.5 211.2 C 472.6 162.2 443.1 117.49999999999999 401.6 86.6 C 324.6 29.299999999999997 200.10000000000002 7.8999999999999915 125.70000000000005 80.8 C 91.20000000000005 114.6 71.30000000000004 163.5 64.10000000000005 210.7 C 56.90000000000005 258.09999999999997 61.50000000000005 308.7 83.60000000000005 351.79999999999995 C 120.10000000000005 422.9 198.90000000000003 477.49999999999994 279.6 474.69999999999993 C 280.40000000000003 474.3999999999999 281.3 474.3999999999999 282.3 474.5999999999999 C 283.8 474.4999999999999 285.2 474.3999999999999 286.7 474.2999999999999 C 287.8 474.4999999999999 288.9 474.5999999999999 290 474.6999999999999 C 290.9 474.4999999999999 291.9 474.39999999999986 292.7 474.2999999999999 C 296.9 473.8999999999999 301.09999999999997 473.5999999999999 305.3 473.0999999999999 C 313 471.9999999999999 320.6 469.2999999999999 328.40000000000003 469.4999999999999 C 330.50000000000006 469.0999999999999 332.6 468.5999999999999 334.6 468.2999999999999 C 334.90000000000003 468.2999999999999 335.1 468.1999999999999 335.3 468.0999999999999 C 339.6 467.19999999999993 343.90000000000003 466.19999999999993 348.2 465.19999999999993 C 357.2 463.0999999999999 366.09999999999997 460.5999999999999 374.8 457.5999999999999 C 391.8 451.69999999999993 408.40000000000003 444.0999999999999 423.6 434.2999999999999 C 452.6 415.6999999999999 477.20000000000005 389.8999999999999 490.40000000000003 357.5999999999999 C 499.50000000000006 335.19999999999993 502.50000000000006 311.7999999999999 501.70000000000005 287.9999999999999 z M 144.1 103.5 C 157.7 94.9 177.39999999999998 92.2 192 99.9 C 198.9 103.5 204.9 109.60000000000001 206.9 117.30000000000001 C 209.20000000000002 126.4 208.8 138 204.70000000000002 146.60000000000002 C 199.8 156.70000000000002 189.8 164.00000000000003 178.8 166.00000000000003 C 165.20000000000002 168.50000000000003 152.4 163.30000000000004 140.10000000000002 158.00000000000003 C 137.10000000000002 156.70000000000002 136.50000000000003 153.90000000000003 137.40000000000003 151.60000000000002 C 125.20000000000003 136.90000000000003 126.70000000000003 114.60000000000002 144.10000000000002 103.50000000000003 z M 222.39999999999998 356.5 C 221.99999999999997 357.7 221.29999999999998 358.5 220.49999999999997 359 C 217.19999999999996 365.2 199.49999999999997 362.7 194.89999999999998 362.5 C 187.89999999999998 362.3 180.99999999999997 361.4 173.99999999999997 361.1 C 167.89999999999998 360.8 161.19999999999996 360.5 155.39999999999998 362.70000000000005 C 155.09999999999997 362.90000000000003 154.79999999999998 363.00000000000006 154.39999999999998 363.1 C 154.29999999999998 363.1 154.29999999999998 363.20000000000005 154.2 363.20000000000005 C 152.7 363.90000000000003 151.39999999999998 363.80000000000007 150.29999999999998 363.40000000000003 C 147.99999999999997 362.8 146.2 361.00000000000006 145.99999999999997 358.50000000000006 C 144.39999999999998 326.20000000000005 145.09999999999997 293.80000000000007 142.59999999999997 261.6 C 140.79999999999995 237.40000000000003 137.49999999999997 213.20000000000002 135.49999999999997 189.00000000000003 C 135.39999999999998 187.80000000000004 135.59999999999997 186.80000000000004 136.09999999999997 186.00000000000003 C 136.19999999999996 183.50000000000003 137.79999999999995 181.40000000000003 140.99999999999997 181.50000000000003 C 153.59999999999997 182.10000000000002 165.99999999999997 180.70000000000002 178.49999999999997 179.00000000000003 C 186.49999999999997 177.90000000000003 197.79999999999998 174.80000000000004 205.29999999999998 179.40000000000003 C 217.79999999999998 187.10000000000002 213.49999999999997 205.10000000000002 215.6 217.50000000000003 C 219.9 242.80000000000004 223.2 268.3 223.9 294 C 224.20000000000002 305.4 223.8 316.7 224.5 328 C 225.2 337.6 225.8 347.3 222.4 356.5 z M 428.4 353.6 L 427.5 353.6 C 426.7 354.20000000000005 425.7 354.6 424.4 354.6 C 403.7 354.70000000000005 383.09999999999997 357.5 362.4 357.6 L 361.9 357.6 C 360.4 358 358.7 357.70000000000005 357.29999999999995 356.3 L 355.29999999999995 354.3 C 352.29999999999995 351.3 353.69999999999993 347.2 356.29999999999995 345.40000000000003 C 356.79999999999995 343.00000000000006 357.4 340.6 357.69999999999993 338.1 C 358.3999999999999 332.8 358.69999999999993 327.5 358.79999999999995 322.20000000000005 C 359.09999999999997 312.1 360.49999999999994 302.00000000000006 359.9 291.90000000000003 C 359.29999999999995 281.50000000000006 358.4 271.20000000000005 358 260.8 C 357.7 250.60000000000002 358 240.20000000000002 356.1 230.20000000000002 C 354.1 219.9 343 218.10000000000002 333.90000000000003 218.8 C 329.20000000000005 219.10000000000002 324.40000000000003 220 320.1 222.10000000000002 C 318.6 222.90000000000003 317.3 223.8 316.5 224.90000000000003 C 316.3 225.20000000000005 316.2 225.80000000000004 316.1 225.60000000000002 C 316.70000000000005 228.40000000000003 315.40000000000003 230.70000000000002 313.40000000000003 231.90000000000003 C 313.8 252.00000000000003 318.40000000000003 271.8 318.40000000000003 292.00000000000006 C 318.40000000000003 311.50000000000006 318.40000000000003 331.1000000000001 316.3 350.50000000000006 C 316.2 351.1000000000001 316 351.70000000000005 315.7 352.20000000000005 C 315.9 354.1 315.9 356.00000000000006 315.9 357.90000000000003 C 315.9 360.6 314 364.00000000000006 310.79999999999995 363.8 C 290.79999999999995 362.8 270.79999999999995 360.90000000000003 250.79999999999995 360.8 L 250.09999999999997 360.8 C 246.89999999999998 362.7 241.89999999999998 361.6 241.89999999999998 356.8 C 241.89999999999998 329.1 241.49999999999997 301.7 239.29999999999998 274.1 C 238.1 258.20000000000005 237.6 242.10000000000002 234.99999999999997 226.40000000000003 C 232.59999999999997 211.60000000000002 228.99999999999997 196.90000000000003 228.79999999999998 181.90000000000003 C 228.79999999999998 179.00000000000003 230.6 177.20000000000005 232.7 176.50000000000003 C 236.29999999999998 172.90000000000003 242.89999999999998 172.10000000000002 247.5 171.50000000000003 C 255.1 170.50000000000003 262.9 170.20000000000002 270.5 170.20000000000002 C 277.8 170.10000000000002 285.1 168.9 292.4 169.4 C 296.29999999999995 169.70000000000002 299.9 170.8 301.9 174.4 C 303 176.4 304 178.4 304.79999999999995 180.6 C 304.79999999999995 180.7 304.9 180.79999999999998 304.9 180.9 C 336.9 152.8 393.2 160.70000000000002 415.79999999999995 197.20000000000002 C 428.19999999999993 217.20000000000002 431.29999999999995 241.20000000000002 431.99999999999994 264.3 C 432.3999999999999 276.2 431.99999999999994 288.1 432.49999999999994 300.1 C 433.19999999999993 316.20000000000005 433.19999999999993 332.20000000000005 433.19999999999993 348.3 C 433.49999999999994 350.6 431.5999999999999 353.6 428.3999999999999 353.6 z" stroke-linecap="round" />
</g>
<g transform="matrix(2.11 0 0 2.11 540.88 537.04)"  >
<path style="stroke: none; stroke-width: 1; stroke-dasharray: none; stroke-linecap: butt; stroke-dashoffset: 0; stroke-linejoin: miter; stroke-miterlimit: 4; fill: rgb(0,0,0); fill-rule: nonzero; opacity: 1;" vector-effect="non-scaling-stroke"  transform=" translate(-281.37, -254.6)" d="M 506.6 241.7 C 501.8 216.39999999999998 493.5 191.79999999999998 482 168.7 C 459.1 122.69999999999999 423.1 84.39999999999999 378 59.599999999999994 C 334.4 35.599999999999994 284 22.099999999999994 234.1 24.599999999999994 C 184.3 27.199999999999996 137.89999999999998 48.99999999999999 105.79999999999998 87.5 C 75.29999999999998 124.1 58.29999999999998 172.5 52.69999999999998 219.3 C 46.99999999999998 266.7 53.59999999999998 316.8 76.19999999999999 359.20000000000005 C 115.19999999999999 432.50000000000006 197 487.90000000000003 281.1 484.40000000000003 C 287.40000000000003 485.8 294.70000000000005 483.90000000000003 301 483.40000000000003 C 305.4 483.00000000000006 309.8 482.3 314.1 481.50000000000006 C 314.5 481.40000000000003 315 481.30000000000007 315.40000000000003 481.20000000000005 L 316.3 481.20000000000005 C 320.5 480.70000000000005 324.8 480.00000000000006 329 479.30000000000007 L 329.2 479.30000000000007 C 330.5 479.4000000000001 331.5 479.20000000000005 332.4 478.6000000000001 C 340.4 477.00000000000006 348.29999999999995 475.1000000000001 356.2 473.2000000000001 C 367.3 470.4000000000001 378.2 466.9000000000001 388.9 462.7000000000001 C 409.7 454.6000000000001 429.4 443.4000000000001 447 429.6000000000001 C 481.9 402.00000000000006 505.5 362.5000000000001 510.7 318.0000000000001 C 513.6 292.9000000000001 511.3 266.60000000000014 506.59999999999997 241.7000000000001 z M 490.5 357.4 C 477.4 389.59999999999997 452.7 415.4 423.7 434.09999999999997 C 408.5 443.9 391.9 451.49999999999994 374.9 457.4 C 366.2 460.4 357.29999999999995 462.9 348.29999999999995 465 C 343.99999999999994 466 339.69999999999993 467 335.4 467.9 C 335.2 468 335 468.09999999999997 334.7 468.09999999999997 C 332.59999999999997 468.49999999999994 330.5 468.9 328.5 469.29999999999995 C 320.7 468.99999999999994 313.1 471.79999999999995 305.4 472.9 C 301.2 473.5 297 473.7 292.79999999999995 474.09999999999997 C 291.99999999999994 474.2 290.99999999999994 474.29999999999995 290.09999999999997 474.49999999999994 C 288.99999999999994 474.3999999999999 287.9 474.29999999999995 286.79999999999995 474.09999999999997 C 285.29999999999995 474.2 283.9 474.29999999999995 282.4 474.4 C 281.4 474.2 280.5 474.2 279.7 474.5 C 198.89999999999998 477.3 120.1 422.7 83.69999999999999 351.6 C 61.499999999999986 308.5 56.89999999999999 258 64.1 210.60000000000002 C 71.3 163.40000000000003 91.19999999999999 114.50000000000003 125.69999999999999 80.70000000000002 C 200.1 7.90000000000002 324.7 29.200000000000017 401.59999999999997 86.50000000000001 C 443.09999999999997 117.4 472.59999999999997 162.20000000000002 488.5 211.10000000000002 C 496.6 235.90000000000003 500.8 261.90000000000003 501.7 287.90000000000003 C 502.5 311.8 499.5 335.20000000000005 490.5 357.40000000000003 z" stroke-linecap="round" />
</g>
<g transform="matrix(2.11 0 0 2.11 540.38 484.38)"  >
<path style="stroke: none; stroke-width: 1; stroke-dasharray: none; stroke-linecap: butt; stroke-dashoffset: 0; stroke-linejoin: miter; stroke-miterlimit: 4; fill: rgb(0,0,0); fill-rule: nonzero; opacity: 1;" vector-effect="non-scaling-stroke"  transform=" translate(-281.61, -229.64)" d="M 224.6 328.1 C 223.9 316.8 224.29999999999998 305.5 224 294.1 C 223.3 268.40000000000003 220 242.90000000000003 215.7 217.60000000000002 C 213.6 205.20000000000002 217.89999999999998 187.20000000000002 205.39999999999998 179.50000000000003 C 197.89999999999998 174.90000000000003 186.59999999999997 178.00000000000003 178.59999999999997 179.10000000000002 C 166.09999999999997 180.8 153.69999999999996 182.20000000000002 141.09999999999997 181.60000000000002 C 137.89999999999998 181.40000000000003 136.29999999999995 183.60000000000002 136.19999999999996 186.10000000000002 C 135.79999999999995 186.90000000000003 135.49999999999997 187.90000000000003 135.59999999999997 189.10000000000002 C 137.69999999999996 213.3 140.89999999999998 237.40000000000003 142.69999999999996 261.70000000000005 C 145.09999999999997 293.90000000000003 144.49999999999997 326.30000000000007 146.09999999999997 358.6 C 146.19999999999996 361.1 148.09999999999997 362.90000000000003 150.39999999999998 363.5 C 151.49999999999997 364 152.79999999999998 364 154.29999999999998 363.3 C 154.39999999999998 363.3 154.39999999999998 363.2 154.49999999999997 363.2 C 154.79999999999998 363.09999999999997 155.19999999999996 363 155.49999999999997 362.8 C 161.29999999999998 360.6 167.99999999999997 361 174.09999999999997 361.2 C 181.09999999999997 361.5 187.99999999999997 362.4 194.99999999999997 362.59999999999997 C 199.59999999999997 362.7 217.29999999999998 365.2 220.59999999999997 359.09999999999997 C 221.39999999999998 358.59999999999997 222.09999999999997 357.79999999999995 222.49999999999997 356.59999999999997 C 225.79999999999998 347.29999999999995 225.19999999999996 337.59999999999997 224.59999999999997 328.09999999999997 z M 212.7 351.3 C 212.5 351.40000000000003 212.2 351.5 212 351.7 C 211 351.8 210 351.8 209 351.8 C 206.5 351.90000000000003 204 351.8 201.5 351.7 C 197.2 351.59999999999997 192.8 351.5 188.5 351.2 C 178.6 350.5 166.9 348.5 156.8 350.8 C 155.60000000000002 321.3 155.9 291.6 153.8 262.1 C 152.20000000000002 238.90000000000003 149.10000000000002 215.8 147 192.60000000000002 C 156 192.70000000000002 164.9 191.8 173.8 190.70000000000002 C 178.9 190.10000000000002 183.9 189.3 188.9 188.70000000000002 C 192.3 188.3 196.3 187.50000000000003 199.6 188.8 C 203.5 190.4 203.2 196.8 203.29999999999998 200.20000000000002 C 203.6 208.4 204.29999999999998 216.00000000000003 205.6 224.10000000000002 C 209.4 246.8 212 269.70000000000005 212.9 292.8 C 213.3 303.2 212.70000000000002 313.6 213.20000000000002 323.90000000000003 C 213.8 332.8 215.60000000000002 342.8 212.70000000000002 351.3 z M 432.8 299.5 C 432.3 287.6 432.7 275.7 432.3 263.7 C 431.6 240.6 428.40000000000003 216.6 416.1 196.6 C 393.5 160.1 337.3 152.2 305.20000000000005 180.29999999999998 C 305.20000000000005 180.2 305.1 180.1 305.1 179.99999999999997 C 304.20000000000005 177.89999999999998 303.3 175.79999999999998 302.20000000000005 173.79999999999998 C 300.20000000000005 170.2 296.6 169.1 292.70000000000005 168.79999999999998 C 285.40000000000003 168.29999999999998 278.1 169.49999999999997 270.80000000000007 169.6 C 263.1000000000001 169.7 255.40000000000006 169.9 247.80000000000007 170.9 C 243.30000000000007 171.5 236.70000000000007 172.4 233.00000000000006 175.9 C 230.80000000000007 176.6 229.00000000000006 178.5 229.10000000000005 181.3 C 229.30000000000004 196.4 232.90000000000006 211 235.30000000000004 225.8 C 237.90000000000003 241.5 238.30000000000004 257.7 239.60000000000005 273.5 C 241.80000000000004 301.1 242.20000000000005 328.6 242.20000000000005 356.2 C 242.20000000000005 361 247.20000000000005 362.09999999999997 250.40000000000003 360.2 L 251.10000000000002 360.2 C 271.1 360.3 291.1 362.2 311.1 363.2 C 314.20000000000005 363.4 316.20000000000005 360 316.20000000000005 357.3 C 316.20000000000005 355.40000000000003 316.20000000000005 353.5 316.00000000000006 351.6 C 316.30000000000007 351.1 316.6000000000001 350.5 316.6000000000001 349.90000000000003 C 318.7000000000001 330.50000000000006 318.7000000000001 310.90000000000003 318.7000000000001 291.40000000000003 C 318.7000000000001 271.3 314.2000000000001 251.40000000000003 313.7000000000001 231.30000000000004 C 315.6000000000001 230.10000000000005 317.0000000000001 227.80000000000004 316.4000000000001 225.00000000000003 C 316.5000000000001 225.20000000000002 316.6000000000001 224.60000000000002 316.80000000000007 224.30000000000004 C 317.6000000000001 223.20000000000005 318.9000000000001 222.30000000000004 320.4000000000001 221.50000000000003 C 324.7000000000001 219.40000000000003 329.4000000000001 218.50000000000003 334.2000000000001 218.20000000000002 C 343.3000000000001 217.50000000000003 354.5000000000001 219.3 356.4000000000001 229.60000000000002 C 358.30000000000007 239.60000000000002 358.0000000000001 250.00000000000003 358.30000000000007 260.20000000000005 C 358.6000000000001 270.6 359.50000000000006 280.90000000000003 360.20000000000005 291.30000000000007 C 360.80000000000007 301.4000000000001 359.40000000000003 311.50000000000006 359.1 321.6000000000001 C 358.90000000000003 326.9000000000001 358.6 332.2000000000001 358 337.50000000000006 C 357.7 340.00000000000006 357.1 342.40000000000003 356.6 344.80000000000007 C 354 346.6000000000001 352.6 350.70000000000005 355.6 353.70000000000005 L 357.6 355.70000000000005 C 359 357.1 360.70000000000005 357.40000000000003 362.20000000000005 357.00000000000006 L 362.70000000000005 357.00000000000006 C 383.40000000000003 356.90000000000003 404.00000000000006 354.1000000000001 424.70000000000005 354.00000000000006 C 426.00000000000006 354.00000000000006 427.00000000000006 353.6000000000001 427.80000000000007 353.00000000000006 L 428.70000000000005 353.00000000000006 C 431.90000000000003 353.00000000000006 433.80000000000007 349.90000000000003 433.80000000000007 347.1000000000001 C 433.50000000000006 331.7000000000001 433.4000000000001 315.6000000000001 432.80000000000007 299.50000000000006 z M 420.40000000000003 343.7 C 402.6 344 384.8 346.09999999999997 367.00000000000006 346.59999999999997 C 367.70000000000005 342.7 368.80000000000007 338.79999999999995 369.20000000000005 334.99999999999994 C 369.70000000000005 329.29999999999995 369.90000000000003 323.59999999999997 370.00000000000006 317.79999999999995 C 370.20000000000005 311.9 370.90000000000003 306.09999999999997 371.1000000000001 300.19999999999993 C 371.4000000000001 293.3999999999999 370.7000000000001 286.5999999999999 370.1000000000001 279.8999999999999 C 369.1000000000001 267.7999999999999 369.1000000000001 255.69999999999993 368.6000000000001 243.49999999999991 C 368.2000000000001 234.99999999999991 368.2000000000001 223.89999999999992 362.30000000000007 216.99999999999991 C 353.80000000000007 207.29999999999993 338.6000000000001 206.1999999999999 326.70000000000005 208.39999999999992 C 317.40000000000003 210.0999999999999 305.40000000000003 215.19999999999993 305.40000000000003 225.5999999999999 C 303.70000000000005 226.49999999999991 302.50000000000006 228.1999999999999 302.50000000000006 230.5999999999999 C 302.6000000000001 250.0999999999999 306.80000000000007 269.2999999999999 307.40000000000003 288.7999999999999 C 308.00000000000006 307.3999999999999 307.70000000000005 326.3999999999999 305.8 344.9999999999999 C 304.2 346.2999999999999 303.3 348.2999999999999 304.2 350.89999999999986 C 304.3 351.09999999999985 304.3 351.29999999999984 304.4 351.4999999999999 L 304.4 352.2999999999999 C 287.2 351.2999999999999 270.09999999999997 349.8999999999999 252.89999999999998 349.6999999999999 C 252.79999999999998 324.09999999999985 252.29999999999998 298.59999999999985 250.39999999999998 272.9999999999999 C 249.2 257.0999999999999 248.59999999999997 240.9999999999999 246.09999999999997 225.2999999999999 C 243.99999999999997 211.8999999999999 240.79999999999995 198.5999999999999 240.09999999999997 185.0999999999999 C 240.29999999999995 184.7999999999999 240.59999999999997 184.49999999999991 240.69999999999996 184.0999999999999 C 241.79999999999995 183.5999999999999 242.99999999999997 183.2999999999999 244.09999999999997 182.99999999999991 C 247.29999999999995 182.1999999999999 250.69999999999996 181.89999999999992 253.99999999999997 181.5999999999999 C 260.29999999999995 180.99999999999991 266.7 180.89999999999992 273.09999999999997 180.89999999999992 C 279.29999999999995 180.89999999999992 285.49999999999994 179.5999999999999 291.59999999999997 179.99999999999991 C 291.99999999999994 179.99999999999991 292.49999999999994 180.0999999999999 292.9 180.1999999999999 C 293 180.3999999999999 293.2 180.5999999999999 293.29999999999995 180.8999999999999 C 294.09999999999997 182.4999999999999 294.69999999999993 184.2999999999999 295.4 185.9999999999999 C 296.79999999999995 189.2999999999999 298.29999999999995 191.7999999999999 301.79999999999995 192.7999999999999 L 301.9 192.7999999999999 C 304 194.0999999999999 306.79999999999995 194.2999999999999 308.9 191.9999999999999 C 322.5 177.59999999999988 343.4 172.8999999999999 362.59999999999997 175.3999999999999 C 383.2 178.09999999999988 400.7 190.1999999999999 410.09999999999997 208.8999999999999 C 419.49999999999994 227.7999999999999 420.9 249.69999999999987 421.29999999999995 270.4999999999999 C 421.79999999999995 294.6999999999999 422.29999999999995 318.89999999999986 422.29999999999995 342.9999999999999 C 421.59999999999997 342.89999999999986 420.9 343.2999999999999 420.4 343.6999999999999 z M 206.9 117.4 C 204.9 109.60000000000001 198.9 103.60000000000001 192 100 C 177.4 92.3 157.7 94.9 144.1 103.6 C 126.69999999999999 114.69999999999999 125.19999999999999 136.89999999999998 137.29999999999998 151.8 C 136.39999999999998 154.20000000000002 136.99999999999997 156.9 139.99999999999997 158.20000000000002 C 152.29999999999998 163.50000000000003 165.09999999999997 168.70000000000002 178.7 166.20000000000002 C 189.7 164.10000000000002 199.7 156.8 204.6 146.8 C 208.79999999999998 138 209.2 126.50000000000001 206.9 117.4 z M 195.6 139.6 C 192.9 147.5 185.9 152.6 178.2 154.9 C 169.2 157.70000000000002 159.5 154.4 150.79999999999998 150.70000000000002 C 150.6 149.70000000000002 149.99999999999997 148.8 148.99999999999997 148.00000000000003 C 142.69999999999996 142.60000000000002 138.89999999999998 134.90000000000003 140.19999999999996 126.40000000000003 C 141.29999999999995 119.70000000000003 146.19999999999996 114.90000000000003 151.79999999999995 111.50000000000003 C 161.39999999999995 105.80000000000003 174.99999999999994 104.60000000000002 185.29999999999995 108.90000000000003 C 197.49999999999994 114.00000000000003 199.59999999999997 128.10000000000002 195.59999999999997 139.60000000000002 z" stroke-linecap="round" />
</g>
</svg>