<svg xmlns="http://www.w3.org/2000/svg" viewBox="0 0 512 512"><path fill="#D6E5E5" d="M185.4 109c-10.3-4.3-23.9-3.1-33.5 2.6-5.5 3.3-10.5 8.2-11.6 14.9-1.3 8.4 2.4 16.1 8.8 21.6 1 .8 1.5 1.8 1.8 2.7 8.7 3.6 18.4 6.9 27.4 4.2 7.7-2.4 14.7-7.5 17.4-15.3 3.9-11.6 1.8-25.7-10.3-30.7zM421.4 270.2c-.4-20.7-1.8-42.7-11.2-61.6-9.3-18.7-26.8-30.8-47.5-33.5-19.2-2.5-40.1 2.2-53.7 16.6-2.2 2.3-5 2.1-7 .8h-.1c-3.5-1.1-5.1-3.6-6.4-6.8-.7-1.7-1.3-3.4-2.1-5.1-.2-.3-.3-.5-.4-.7-.4-.1-.9-.1-1.3-.2-6.1-.4-12.4.8-18.5.9-6.4 0-12.7.2-19.1.7-3.3.3-6.7.5-9.9 1.4-1.1.3-2.3.6-3.4 1.1-.2.4-.4.7-.6 1 .7 13.6 4 26.8 6 40.2 2.4 15.7 3 31.9 4.3 47.7 2 25.6 2.5 51.1 2.5 76.7 17.2.2 34.4 1.6 51.5 2.6V351.2c-.1-.2-.1-.4-.2-.6-1-2.5-.1-4.6 1.6-5.9 1.8-18.6 2.2-37.6 1.6-56.2-.7-19.5-4.8-38.7-4.9-58.2 0-2.4 1.2-4.1 2.9-5 0-10.4 12-15.5 21.3-17.2 11.9-2.2 27.1-1.1 35.6 8.6 5.9 6.8 5.9 18 6.3 26.5.5 12.1.5 24.3 1.5 36.4.6 6.7 1.3 13.6 1 20.3-.3 5.9-.9 11.7-1.1 17.6-.2 5.7-.3 11.5-.8 17.2-.4 3.8-1.5 7.8-2.2 11.6 17.8-.5 35.6-2.6 53.4-2.9.6-.5 1.2-.8 2.1-.9-.2-23.9-.7-48.1-1.2-72.3zM213.3 324.1c-.6-10.4 0-20.8-.3-31.1-.8-23-3.5-45.9-7.3-68.7-1.3-8.1-2-15.7-2.3-23.9-.1-3.4.2-9.8-3.7-11.4-3.3-1.4-7.3-.6-10.7-.1-5.1.6-10.1 1.3-15.1 2-8.9 1.1-17.8 2-26.8 1.9 2.1 23.2 5.2 46.3 6.8 69.5 2.1 29.5 1.8 59.1 3 88.7 10.2-2.3 21.8-.3 31.7.4 4.3.3 8.7.4 13 .5 2.5.1 5 .1 7.5.1 1 0 2-.1 3-.1.2-.1.4-.3.7-.4 2.8-8.7 1-18.7.5-27.4z"/><path fill="#4B7BB2" d="M501.7 288c-.9-26-5.1-52-13.2-76.8-15.9-49-45.4-93.7-86.9-124.6-77-57.3-201.5-78.7-275.9-5.8-34.5 33.8-54.4 82.7-61.6 129.9-7.2 47.4-2.6 98 19.5 141.1 36.5 71.1 115.3 125.7 196 122.9.8-.3 1.7-.3 2.7-.1 1.5-.1 2.9-.2 4.4-.3 1.1.2 2.2.3 3.3.4.9-.2 1.9-.3 2.7-.4 4.2-.4 8.4-.7 12.6-1.2 7.7-1.1 15.3-3.8 23.1-3.6 2.1-.4 4.2-.9 6.2-1.2.3 0 .5-.1.7-.2 4.3-.9 8.6-1.9 12.9-2.9 9-2.1 17.9-4.6 26.6-7.6 17-5.9 33.6-13.5 48.8-23.3 29-18.6 53.6-44.4 66.8-76.7 9.1-22.4 12.1-45.8 11.3-69.6zM144.1 103.5c13.6-8.6 33.3-11.3 47.9-3.6 6.9 3.6 12.9 9.7 14.9 17.4 2.3 9.1 1.9 20.7-2.2 29.3-4.9 10.1-14.9 17.4-25.9 19.4-13.6 2.5-26.4-2.7-38.7-8-3-1.3-3.6-4.1-2.7-6.4-12.2-14.7-10.7-37 6.7-48.1zm78.3 253c-.4 1.2-1.1 2-1.9 2.5-3.3 6.2-21 3.7-25.6 3.5-7-.2-13.9-1.1-20.9-1.4-6.1-.3-12.8-.6-18.6 1.6-.3.2-.6.3-1 .4-.1 0-.1.1-.2.1-1.5.7-2.8.6-3.9.2-2.3-.6-4.1-2.4-4.3-4.9-1.6-32.3-.9-64.7-3.4-96.9-1.8-24.2-5.1-48.4-7.1-72.6-.1-1.2.1-2.2.6-3 .1-2.5 1.7-4.6 4.9-4.5 12.6.6 25-.8 37.5-2.5 8-1.1 19.3-4.2 26.8.4 12.5 7.7 8.2 25.7 10.3 38.1 4.3 25.3 7.6 50.8 8.3 76.5.3 11.4-.1 22.7.6 34 .7 9.6 1.3 19.3-2.1 28.5zm206-2.9h-.9c-.8.6-1.8 1-3.1 1-20.7.1-41.3 2.9-62 3h-.5c-1.5.4-3.2.1-4.6-1.3l-2-2c-3-3-1.6-7.1 1-8.9.5-2.4 1.1-4.8 1.4-7.3.7-5.3 1-10.6 1.1-15.9.3-10.1 1.7-20.2 1.1-30.3-.6-10.4-1.5-20.7-1.9-31.1-.3-10.2 0-20.6-1.9-30.6-2-10.3-13.1-12.1-22.2-11.4-4.7.3-9.5 1.2-13.8 3.3-1.5.8-2.8 1.7-3.6 2.8-.2.3-.3.9-.4.7.6 2.8-.7 5.1-2.7 6.3.4 20.1 5 39.9 5 60.1 0 19.5 0 39.1-2.1 58.5-.1.6-.3 1.2-.6 1.7.2 1.9.2 3.8.2 5.7 0 2.7-1.9 6.1-5.1 5.9-20-1-40-2.9-60-3h-.7c-3.2 1.9-8.2.8-8.2-4 0-27.7-.4-55.1-2.6-82.7-1.2-15.9-1.7-32-4.3-47.7-2.4-14.8-6-29.5-6.2-44.5 0-2.9 1.8-4.7 3.9-5.4 3.6-3.6 10.2-4.4 14.8-5 7.6-1 15.4-1.3 23-1.3 7.3-.1 14.6-1.3 21.9-.8 3.9.3 7.5 1.4 9.5 5 1.1 2 2.1 4 2.9 6.2 0 .1.1.2.1.3 32-28.1 88.3-20.2 110.9 16.3 12.4 20 15.5 44 16.2 67.1.4 11.9 0 23.8.5 35.8.7 16.1.7 32.1.7 48.2.3 2.3-1.6 5.3-4.8 5.3z"/><path d="M506.6 241.7c-4.8-25.3-13.1-49.9-24.6-73-22.9-46-58.9-84.3-104-109.1-43.6-24-94-37.5-143.9-35-49.8 2.6-96.2 24.4-128.3 62.9-30.5 36.6-47.5 85-53.1 131.8-5.7 47.4.9 97.5 23.5 139.9 39 73.3 120.8 128.7 204.9 125.2 6.3 1.4 13.6-.5 19.9-1 4.4-.4 8.8-1.1 13.1-1.9.4-.1.9-.2 1.3-.3h.9c4.2-.5 8.5-1.2 12.7-1.9h.2c1.3.1 2.3-.1 3.2-.7 8-1.6 15.9-3.5 23.8-5.4 11.1-2.8 22-6.3 32.7-10.5 20.8-8.1 40.5-19.3 58.1-33.1 34.9-27.6 58.5-67.1 63.7-111.6 2.9-25.1.6-51.4-4.1-76.3zm-16.1 115.7c-13.1 32.2-37.8 58-66.8 76.7-15.2 9.8-31.8 17.4-48.8 23.3-8.7 3-17.6 5.5-26.6 7.6-4.3 1-8.6 2-12.9 2.9-.2.1-.4.2-.7.2-2.1.4-4.2.8-6.2 1.2-7.8-.3-15.4 2.5-23.1 3.6-4.2.6-8.4.8-12.6 1.2-.8.1-1.8.2-2.7.4-1.1-.1-2.2-.2-3.3-.4-1.5.1-2.9.2-4.4.3-1-.2-1.9-.2-2.7.1-80.8 2.8-159.6-51.8-196-122.9-22.2-43.1-26.8-93.6-19.6-141 7.2-47.2 27.1-96.1 61.6-129.9 74.4-72.8 199-51.5 275.9 5.8 41.5 30.9 71 75.7 86.9 124.6 8.1 24.8 12.3 50.8 13.2 76.8.8 23.9-2.2 47.3-11.2 69.5z"/><path d="M224.6 328.1c-.7-11.3-.3-22.6-.6-34-.7-25.7-4-51.2-8.3-76.5-2.1-12.4 2.2-30.4-10.3-38.1-7.5-4.6-18.8-1.5-26.8-.4-12.5 1.7-24.9 3.1-37.5 2.5-3.2-.2-4.8 2-4.9 4.5-.4.8-.7 1.8-.6 3 2.1 24.2 5.3 48.3 7.1 72.6 2.4 32.2 1.8 64.6 3.4 96.9.1 2.5 2 4.3 4.3 4.9 1.1.5 2.4.5 3.9-.2.1 0 .1-.1.2-.1.3-.1.7-.2 1-.4 5.8-2.2 12.5-1.8 18.6-1.6 7 .3 13.9 1.2 20.9 1.4 4.6.1 22.3 2.6 25.6-3.5.8-.5 1.5-1.3 1.9-2.5 3.3-9.3 2.7-19 2.1-28.5zm-11.9 23.2c-.2.1-.5.2-.7.4-1 .1-2 .1-3 .1-2.5.1-5 0-7.5-.1-4.3-.1-8.7-.2-13-.5-9.9-.7-21.6-2.7-31.7-.4-1.2-29.5-.9-59.2-3-88.7-1.6-23.2-4.7-46.3-6.8-69.5 9 .1 17.9-.8 26.8-1.9 5.1-.6 10.1-1.4 15.1-2 3.4-.4 7.4-1.2 10.7.1 3.9 1.6 3.6 8 3.7 11.4.3 8.2 1 15.8 2.3 23.9 3.8 22.7 6.4 45.6 7.3 68.7.4 10.4-.2 20.8.3 31.1.6 8.9 2.4 18.9-.5 27.4zM432.8 299.5c-.5-11.9-.1-23.8-.5-35.8-.7-23.1-3.9-47.1-16.2-67.1-22.6-36.5-78.8-44.4-110.9-16.3 0-.1-.1-.2-.1-.3-.9-2.1-1.8-4.2-2.9-6.2-2-3.6-5.6-4.7-9.5-5-7.3-.5-14.6.7-21.9.8-7.7.1-15.4.3-23 1.3-4.5.6-11.1 1.5-14.8 5-2.2.7-4 2.6-3.9 5.4.2 15.1 3.8 29.7 6.2 44.5 2.6 15.7 3 31.9 4.3 47.7 2.2 27.6 2.6 55.1 2.6 82.7 0 4.8 5 5.9 8.2 4h.7c20 .1 40 2 60 3 3.1.2 5.1-3.2 5.1-5.9 0-1.9 0-3.8-.2-5.7.3-.5.6-1.1.6-1.7 2.1-19.4 2.1-39 2.1-58.5 0-20.1-4.5-40-5-60.1 1.9-1.2 3.3-3.5 2.7-6.3.1.2.2-.4.4-.7.8-1.1 2.1-2 3.6-2.8 4.3-2.1 9-3 13.8-3.3 9.1-.7 20.3 1.1 22.2 11.4 1.9 10 1.6 20.4 1.9 30.6.3 10.4 1.2 20.7 1.9 31.1.6 10.1-.8 20.2-1.1 30.3-.2 5.3-.5 10.6-1.1 15.9-.3 2.5-.9 4.9-1.4 7.3-2.6 1.8-4 5.9-1 8.9l2 2c1.4 1.4 3.1 1.7 4.6 1.3h.5c20.7-.1 41.3-2.9 62-3 1.3 0 2.3-.4 3.1-1h.9c3.2 0 5.1-3.1 5.1-5.9-.3-15.4-.4-31.5-1-47.6zm-12.4 44.2c-17.8.3-35.6 2.4-53.4 2.9.7-3.9 1.8-7.8 2.2-11.6.5-5.7.7-11.4.8-17.2.2-5.9.9-11.7 1.1-17.6.3-6.8-.4-13.6-1-20.3-1-12.1-1-24.2-1.5-36.4-.4-8.5-.4-19.6-6.3-26.5-8.5-9.7-23.7-10.8-35.6-8.6-9.3 1.7-21.3 6.8-21.3 17.2-1.7.9-2.9 2.6-2.9 5 .1 19.5 4.3 38.7 4.9 58.2.6 18.6.3 37.6-1.6 56.2-1.6 1.3-2.5 3.3-1.6 5.9.1.2.1.4.2.6v.8c-17.2-1-34.3-2.4-51.5-2.6-.1-25.6-.6-51.1-2.5-76.7-1.2-15.9-1.8-32-4.3-47.7-2.1-13.4-5.3-26.7-6-40.2.2-.3.5-.6.6-1 1.1-.5 2.3-.8 3.4-1.1 3.2-.8 6.6-1.1 9.9-1.4 6.3-.6 12.7-.7 19.1-.7 6.2 0 12.4-1.3 18.5-.9.4 0 .9.1 1.3.2.1.2.3.4.4.7.8 1.6 1.4 3.4 2.1 5.1 1.4 3.3 2.9 5.8 6.4 6.8h.1c2.1 1.3 4.9 1.5 7-.8 13.6-14.4 34.5-19.1 53.7-16.6 20.6 2.7 38.1 14.8 47.5 33.5 9.4 18.9 10.8 40.8 11.2 61.6.5 24.2 1 48.4 1 72.5-.7-.1-1.4.3-1.9.7zM206.9 117.4c-2-7.8-8-13.8-14.9-17.4-14.6-7.7-34.3-5.1-47.9 3.6-17.4 11.1-18.9 33.3-6.8 48.2-.9 2.4-.3 5.1 2.7 6.4 12.3 5.3 25.1 10.5 38.7 8 11-2.1 21-9.4 25.9-19.4 4.2-8.8 4.6-20.3 2.3-29.4zm-11.3 22.2c-2.7 7.9-9.7 13-17.4 15.3-9 2.8-18.7-.5-27.4-4.2-.2-1-.8-1.9-1.8-2.7-6.3-5.4-10.1-13.1-8.8-21.6 1.1-6.7 6-11.5 11.6-14.9 9.6-5.7 23.2-6.9 33.5-2.6 12.2 5.1 14.3 19.2 10.3 30.7z"/></svg>