<?xml version="1.0" encoding="UTF-8"?>
<svg xmlns="http://www.w3.org/2000/svg" xmlns:xlink="http://www.w3.org/1999/xlink" width="200px" height="201px" viewBox="0 0 200 200" version="1.1">
<g id="surface1">
<path style=" stroke:none;fill-rule:nonzero;fill:rgb(0%,0%,0%);fill-opacity:1;" d="M 85.464844 2.992188 C 60.933594 6.78125 41.066406 17.953125 25.066406 37.167969 C 1.867188 64.960938 -4.132812 101.195312 9 135.039062 C 16.734375 155.054688 26.398438 166.953125 44.535156 178.988281 C 55.667969 186.371094 63.066406 190.027344 73.800781 193.484375 C 84.667969 197.007812 94.066406 198.402344 104.332031 197.9375 C 127.800781 196.941406 150.867188 187.566406 167.066406 172.40625 C 175.667969 164.429688 186.535156 148.9375 190.867188 138.628906 C 194.601562 129.722656 197.734375 115.558594 198.398438 104.519531 C 199.667969 84.90625 192.199219 59.308594 180.535156 42.886719 C 166.332031 23.003906 143.464844 7.914062 121.066406 3.65625 C 113.332031 2.128906 93.265625 1.796875 85.464844 2.992188 Z M 120.667969 6.050781 C 123.800781 6.78125 129.601562 8.445312 133.535156 9.707031 C 141.933594 12.5 143.464844 13.894531 141.734375 17.085938 C 141.199219 18.152344 139.398438 19.746094 137.667969 20.613281 C 134.535156 22.207031 131.332031 25.332031 131.332031 26.863281 C 131.332031 27.328125 130.265625 28.65625 129 29.921875 C 125.734375 33.046875 125.867188 35.039062 129.867188 40.09375 C 133.601562 45.011719 133.867188 45.210938 136.066406 45.210938 C 137.199219 45.210938 138.265625 45.8125 138.933594 46.808594 C 139.734375 48.070312 140.667969 48.539062 142.800781 48.671875 C 145.398438 48.871094 145.667969 49.070312 145.867188 50.796875 C 146 51.863281 145.601562 54.320312 145 56.25 C 143.667969 60.4375 144.265625 62.035156 147.667969 63.496094 C 150.332031 64.5625 150.332031 64.628906 149 68.484375 C 147.601562 72.472656 147.734375 75.929688 149.332031 77.660156 C 150.132812 78.457031 151.132812 79.121094 151.667969 79.121094 C 153.265625 79.121094 153.398438 80.253906 152 83.179688 C 148.667969 90.625 152.199219 102.726562 158.800781 106.117188 C 160.933594 107.246094 166.933594 107.3125 170.933594 106.316406 C 174.734375 105.386719 178.800781 106.449219 180 108.644531 C 180.667969 109.972656 180.667969 111.304688 180 115.558594 C 179.398438 119.414062 179.398438 121.476562 179.933594 123.402344 C 181.398438 128.589844 180.464844 147.40625 178.464844 152.59375 C 178.066406 153.65625 177.066406 155.652344 176.332031 156.914062 C 175.535156 158.179688 174.601562 159.972656 174.332031 160.902344 C 173.398438 163.828125 164.734375 172.671875 158.601562 176.996094 C 141 189.363281 124.535156 195.210938 105 195.945312 C 93.667969 196.410156 86.667969 195.546875 75.800781 192.421875 C 53.800781 186.105469 31.800781 170.546875 20.601562 153.257812 C 13.734375 142.753906 7.398438 127.0625 5.265625 115.027344 C 3.933594 107.644531 4.066406 88.296875 5.601562 81.117188 C 8.132812 68.882812 14.066406 55.453125 21.601562 45.011719 C 30.535156 32.511719 45.265625 18.75 47.933594 20.414062 C 48.535156 20.746094 49.464844 21.808594 49.933594 22.738281 C 50.800781 24.269531 50.800781 24.800781 49.667969 27.328125 C 48.933594 28.921875 45.265625 34.773438 41.535156 40.359375 C 30.066406 57.445312 27.667969 63.5625 27.667969 75.796875 L 27.667969 84.109375 L 31.734375 90.09375 C 36.132812 96.476562 37.800781 98.605469 44.867188 106.78125 C 49.867188 112.5 52 116.023438 52 118.617188 C 52 119.480469 50.933594 123.269531 49.734375 126.996094 C 48.464844 130.71875 47.199219 134.972656 47 136.570312 C 46.265625 141.421875 49.464844 146.875 54.667969 149.601562 C 57.601562 151.195312 60.398438 153.789062 61.667969 156.183594 C 62.199219 157.246094 63.667969 162.300781 64.933594 167.355469 C 67.464844 177.660156 69.535156 182.445312 72.734375 185.105469 C 75.800781 187.699219 79.601562 189.496094 82.066406 189.496094 L 84.199219 189.496094 L 83.667969 184.640625 C 82.933594 177.792969 83.066406 175.730469 84.464844 173.539062 C 85.132812 172.539062 89.535156 168.152344 94.199219 163.894531 C 103.066406 155.785156 105.535156 152.394531 106.398438 147.074219 C 107.132812 142.488281 105.734375 139.960938 98.601562 132.847656 C 92.734375 126.996094 91.199219 125.863281 85.199219 122.9375 C 81.398438 121.144531 76.667969 118.75 74.667969 117.6875 C 71.332031 115.824219 70.601562 115.691406 66.667969 116.089844 C 61.535156 116.554688 61.265625 116.289062 56.601562 108.378906 C 54.066406 104.121094 53.667969 102.859375 53.667969 99.734375 C 53.667969 94.414062 54.933594 91.953125 58.667969 90.09375 C 60.332031 89.230469 63.667969 88.164062 66.066406 87.765625 C 71.734375 86.769531 74.066406 85.570312 76.667969 82.378906 C 78.867188 79.585938 80.132812 78.921875 85.535156 77.460938 C 87.332031 76.929688 90.398438 75.597656 92.332031 74.402344 C 95.199219 72.671875 96.199219 71.542969 97.332031 69.015625 C 99.332031 64.296875 99.667969 60.105469 98.398438 55.785156 C 97.199219 51.730469 95.933594 50 92.332031 47.605469 C 90.066406 46.011719 89.199219 45.878906 83.398438 45.878906 C 79.265625 45.878906 76.667969 45.613281 76.132812 45.078125 C 74.800781 43.75 75.265625 41.222656 77.265625 38.628906 C 79.800781 35.4375 80.933594 32.914062 80.464844 31.648438 C 79.933594 30.320312 71.867188 26.597656 69.535156 26.597656 C 67 26.597656 64.933594 25.066406 62.601562 21.410156 C 57.933594 14.027344 61.332031 10.835938 78.667969 6.316406 C 88.464844 3.722656 110.199219 3.589844 120.667969 6.050781 Z M 58 17.421875 C 59.535156 23.003906 64.398438 28.589844 67.800781 28.589844 C 70 28.589844 73.332031 29.789062 73.332031 30.585938 C 73.332031 30.851562 74.265625 31.25 75.332031 31.515625 C 78.398438 32.113281 78.398438 33.445312 75.398438 37.632812 C 72.265625 42.019531 71.867188 44.945312 74.066406 46.941406 C 75.199219 48.003906 76.535156 48.203125 82.332031 48.203125 C 89 48.203125 89.265625 48.269531 91.800781 50.265625 C 93.734375 51.796875 94.667969 53.324219 95.800781 56.582031 C 97.867188 62.5 97.734375 65.027344 95.398438 68.285156 C 92.398438 72.40625 89.535156 74.203125 83.734375 75.796875 C 77.867188 77.328125 77 77.859375 74.332031 80.984375 C 72 83.777344 69.867188 84.839844 64.199219 86.039062 C 57.332031 87.433594 54.535156 88.960938 53.066406 92.085938 C 51.464844 95.347656 50.933594 100.53125 51.933594 104.054688 C 52.867188 107.511719 59.199219 117.152344 61.199219 118.085938 C 62.199219 118.550781 63.867188 118.617188 66.199219 118.285156 C 69.265625 117.753906 70.066406 117.886719 73 119.480469 C 74.867188 120.414062 79.535156 122.804688 83.464844 124.734375 C 89.199219 127.59375 91.464844 129.1875 95.464844 133.113281 C 102.398438 139.960938 104.667969 143.019531 104.667969 145.679688 C 104.667969 149.867188 102.199219 153.324219 92.933594 162.035156 C 82.066406 172.273438 80.464844 174.933594 81.066406 181.25 C 81.332031 183.578125 81.199219 185.503906 80.867188 185.703125 C 80 186.238281 73.933594 183.378906 72.535156 181.78125 C 70.199219 179.1875 68.066406 173.003906 66.667969 164.894531 C 65.667969 159.042969 64.667969 155.519531 63.332031 153.058594 C 62.265625 151.128906 61.535156 149.136719 61.734375 148.738281 C 61.933594 148.269531 65.667969 144.945312 70.066406 141.289062 C 79.265625 133.644531 81.667969 131.25 80.867188 130.785156 C 80.265625 130.386719 67.199219 140.890625 62.332031 145.679688 C 60.800781 147.074219 59.398438 148.269531 59.132812 148.269531 C 58.800781 148.269531 57 147.207031 55 145.945312 C 48.464844 141.820312 47.933594 138.496094 52 126.929688 C 53.464844 122.738281 54.667969 118.417969 54.667969 117.355469 C 54.667969 114.628906 53.667969 113.164062 42.398438 99.734375 C 29.199219 83.910156 28 80.851562 30.332031 68.683594 C 31.535156 62.367188 37 51.195312 44.464844 40.027344 C 49.800781 31.914062 53.332031 25.132812 53.332031 22.871094 C 53.332031 22.074219 52.667969 20.679688 51.933594 19.679688 C 51.132812 18.683594 50.601562 17.820312 50.734375 17.6875 C 52.601562 16.421875 55.867188 14.628906 56.464844 14.628906 C 56.933594 14.628906 57.601562 15.890625 58 17.421875 Z M 149.734375 17.421875 C 150 17.820312 149.132812 19.082031 147.601562 20.480469 C 139.800781 27.527344 133.199219 33.976562 133.535156 34.375 C 133.800781 34.574219 136.535156 32.378906 139.667969 29.519531 C 142.867188 26.664062 146.933594 22.9375 148.734375 21.34375 L 152.066406 18.417969 L 156.867188 21.675781 C 162.066406 25.199219 173.601562 36.371094 175.535156 39.761719 L 176.734375 41.820312 L 174.734375 42.886719 C 173.601562 43.417969 171.734375 43.882812 170.535156 43.949219 C 167.398438 44.015625 165.199219 44.746094 164.601562 45.878906 C 159.734375 55.519531 159.667969 55.652344 160.867188 58.179688 C 161.464844 59.507812 162 61.769531 162 63.296875 C 162 65.691406 161.667969 66.355469 159.265625 68.417969 C 157.734375 69.746094 155.398438 71.941406 153.933594 73.269531 C 152.535156 74.667969 151.199219 75.796875 150.933594 75.796875 C 150.667969 75.796875 150.667969 74.402344 150.933594 72.605469 C 152.398438 62.5 152.398438 62.699219 149.667969 61.105469 C 147 59.507812 146.933594 59.109375 148.398438 52.0625 C 148.734375 50.332031 148.464844 49.667969 147.132812 48.269531 C 146.132812 47.339844 144.667969 46.542969 143.734375 46.542969 C 142.800781 46.542969 141.867188 46.210938 141.601562 45.8125 C 141.398438 45.414062 139.601562 44.347656 137.667969 43.550781 C 134 41.886719 128.667969 36.636719 128.667969 34.574219 C 128.667969 33.976562 129.464844 32.777344 130.398438 31.847656 C 131.332031 30.984375 132.867188 28.855469 133.734375 27.0625 C 135.066406 24.46875 136 23.605469 139.199219 22.074219 C 142.734375 20.414062 143.933594 19.082031 144.933594 15.757812 C 145.265625 14.695312 145.464844 14.628906 147.265625 15.625 C 148.332031 16.15625 149.464844 16.953125 149.734375 17.421875 Z M 180.265625 46.011719 C 182.265625 48.671875 188.734375 61.570312 190.398438 66.289062 C 191.601562 69.613281 191.601562 69.8125 190.398438 71.011719 C 188.265625 73.402344 179.265625 75.398438 170.332031 75.464844 C 163.535156 75.53125 161.800781 75.796875 158.800781 77.128906 C 156.132812 78.257812 155.066406 78.457031 154.464844 77.859375 C 153.332031 76.730469 155.867188 73.738281 159.464844 72.007812 C 161.199219 71.210938 163 69.878906 163.601562 69.015625 C 164.933594 67.152344 165 61.4375 163.667969 59.175781 C 162.398438 56.980469 162.398438 54.1875 163.734375 53.125 C 164.332031 52.660156 165.464844 50.863281 166.265625 49.203125 C 167.601562 46.34375 167.867188 46.210938 171.066406 45.8125 C 172.933594 45.546875 175.066406 45.078125 175.734375 44.679688 C 177.734375 43.484375 178.464844 43.75 180.265625 46.011719 Z M 193.667969 77.261719 C 196.265625 86.171875 197 98.203125 195.667969 110.371094 C 194.667969 120.011719 194.332031 121.277344 191.199219 130.984375 C 189.398438 136.304688 185.066406 146.34375 183.066406 149.535156 C 181.734375 151.664062 181.601562 148.539062 182.734375 140.292969 C 183.867188 131.847656 183.867188 130.984375 182.867188 125.929688 C 181.867188 121.210938 181.867188 119.8125 182.667969 114.894531 C 183.667969 108.445312 183.265625 107.046875 179.867188 105.320312 C 178.132812 104.386719 176.734375 104.320312 172.066406 104.722656 C 159.398438 105.851562 157.535156 105.1875 154.601562 98.671875 C 150.800781 90.359375 152.867188 82.179688 159.667969 78.589844 C 161.199219 77.792969 163.464844 77.59375 169 77.660156 C 176.265625 77.726562 182.464844 76.863281 187.667969 74.933594 C 192.132812 73.269531 192.535156 73.472656 193.667969 77.261719 Z M 193.667969 77.261719 "/>
<path style=" stroke:none;fill-rule:nonzero;fill:rgb(0%,0%,0%);fill-opacity:1;" d="M 99.199219 24.667969 C 97.464844 25.597656 97 29.386719 98.265625 31.78125 C 98.867188 32.914062 99.332031 34.707031 99.332031 35.835938 C 99.332031 39.230469 100.535156 41.15625 103.800781 43.21875 C 105.535156 44.347656 107.132812 45.210938 107.398438 45.210938 C 108.132812 45.210938 110.667969 37.234375 110.667969 34.972656 C 110.667969 31.582031 108.132812 27.394531 105.066406 25.597656 C 102 23.804688 100.933594 23.605469 99.199219 24.667969 Z M 105.332031 28.988281 C 106.800781 30.320312 108 31.78125 108 32.179688 C 108 33.445312 102.199219 38.761719 101.734375 37.964844 C 101.066406 36.902344 101.933594 34.507812 103.535156 32.777344 C 105.132812 30.984375 104.535156 29.921875 102.800781 31.449219 C 101.265625 32.847656 100 31.78125 100 29.253906 C 100 25.796875 101.667969 25.730469 105.332031 28.988281 Z M 108.667969 35.902344 C 108.667969 38.097656 106.800781 41.886719 105.800781 41.886719 C 105.265625 41.886719 104.464844 41.421875 104 40.890625 C 103.332031 40.09375 103.535156 39.429688 105.398438 37.300781 C 108 34.308594 108.667969 34.042969 108.667969 35.902344 Z M 108.667969 35.902344 "/>
<path style=" stroke:none;fill-rule:nonzero;fill:rgb(0%,0%,0%);fill-opacity:1;" d="M 53.332031 33.246094 C 50 36.570312 47.332031 39.628906 47.332031 40.027344 C 47.332031 40.757812 59.132812 29.789062 60.199219 28.125 C 60.535156 27.59375 60.398438 27.261719 60 27.261719 C 59.601562 27.261719 56.601562 29.988281 53.332031 33.246094 Z M 53.332031 33.246094 "/>
<path style=" stroke:none;fill-rule:nonzero;fill:rgb(0%,0%,0%);fill-opacity:1;" d="M 55.464844 39.363281 C 47 47.273438 42.398438 52.261719 43.199219 52.792969 C 43.867188 53.191406 63.734375 33.445312 63.199219 32.914062 C 62.933594 32.644531 59.464844 35.570312 55.464844 39.363281 Z M 55.464844 39.363281 "/>
<path style=" stroke:none;fill-rule:nonzero;fill:rgb(0%,0%,0%);fill-opacity:1;" d="M 57.332031 48.003906 C 45.199219 58.84375 34.464844 69.480469 34.734375 70.347656 C 34.867188 70.746094 37.535156 68.617188 40.667969 65.625 C 43.800781 62.632812 48.265625 58.378906 50.667969 56.183594 C 62.199219 45.546875 65.398438 42.421875 65.199219 41.820312 C 65.066406 41.421875 61.535156 44.214844 57.332031 48.003906 Z M 57.332031 48.003906 "/>
<path style=" stroke:none;fill-rule:nonzero;fill:rgb(0%,0%,0%);fill-opacity:1;" d="M 65.601562 53.257812 C 64.535156 54.386719 60.535156 58.046875 56.667969 61.371094 C 42.398438 73.605469 37.601562 78.457031 39.933594 78.457031 C 40.265625 78.457031 42.265625 76.730469 44.464844 74.601562 C 46.601562 72.539062 51.667969 67.953125 55.667969 64.496094 C 63.800781 57.445312 67.933594 53.257812 68 51.996094 C 68 50.863281 67.800781 50.929688 65.601562 53.257812 Z M 65.601562 53.257812 "/>
<path style=" stroke:none;fill-rule:nonzero;fill:rgb(0%,0%,0%);fill-opacity:1;" d="M 69.601562 61.304688 C 51.601562 76.664062 40.667969 86.835938 40.667969 88.230469 C 40.667969 89.761719 41.867188 89.164062 43.933594 86.570312 C 45.066406 85.238281 51.800781 78.988281 58.933594 72.804688 C 66.066406 66.554688 72.066406 61.105469 72.265625 60.570312 C 73.066406 58.84375 72.132812 59.109375 69.601562 61.304688 Z M 69.601562 61.304688 "/>
<path style=" stroke:none;fill-rule:nonzero;fill:rgb(0%,0%,0%);fill-opacity:1;" d="M 81.601562 61.835938 C 80.199219 63.296875 77.066406 66.222656 74.535156 68.285156 C 69.933594 72.140625 69.199219 73.136719 71 73.136719 C 72.132812 73.136719 83.667969 62.367188 84.734375 60.371094 C 85.867188 58.246094 84.199219 59.042969 81.601562 61.835938 Z M 81.601562 61.835938 "/>
<path style=" stroke:none;fill-rule:nonzero;fill:rgb(0%,0%,0%);fill-opacity:1;" d="M 59.535156 125.597656 C 54.132812 130.585938 53.265625 131.648438 54.667969 131.648438 C 56.066406 131.648438 66 121.410156 65.265625 120.746094 C 65.132812 120.613281 62.535156 122.804688 59.535156 125.597656 Z M 59.535156 125.597656 "/>
<path style=" stroke:none;fill-rule:nonzero;fill:rgb(0%,0%,0%);fill-opacity:1;" d="M 66 129.121094 C 55.132812 138.628906 53.066406 140.691406 53.601562 141.554688 C 54 142.085938 55.398438 141.15625 58.199219 138.5625 C 70.734375 126.863281 72.734375 124.867188 72.535156 124.269531 C 72.398438 123.871094 69.464844 126.0625 66 129.121094 Z M 66 129.121094 "/>
<path style=" stroke:none;fill-rule:nonzero;fill:rgb(0%,0%,0%);fill-opacity:1;" d="M 82.667969 140.027344 C 74 146.410156 70 149.800781 70 150.730469 C 70 151.195312 70.132812 151.597656 70.332031 151.597656 C 70.734375 151.597656 84.667969 141.023438 86.867188 139.097656 C 88.601562 137.433594 89.199219 136.304688 88.199219 136.304688 C 87.867188 136.371094 85.398438 138.03125 82.667969 140.027344 Z M 82.667969 140.027344 "/>
<path style=" stroke:none;fill-rule:nonzero;fill:rgb(0%,0%,0%);fill-opacity:1;" d="M 91.265625 144.015625 C 90.800781 144.613281 87.734375 146.941406 84.535156 149.269531 C 77.867188 153.988281 73.332031 157.914062 73.332031 158.910156 C 73.332031 159.242188 73.535156 159.574219 73.867188 159.507812 C 74.734375 159.441406 93.535156 144.613281 93.867188 143.75 C 94.265625 142.554688 92.332031 142.753906 91.265625 144.015625 Z M 91.265625 144.015625 "/>
<path style=" stroke:none;fill-rule:nonzero;fill:rgb(0%,0%,0%);fill-opacity:1;" d="M 78.667969 163.03125 C 72.933594 166.886719 70.867188 168.882812 72.601562 168.882812 C 73.332031 168.882812 86.667969 159.707031 86.667969 159.175781 C 86.667969 158.179688 84.066406 159.441406 78.667969 163.03125 Z M 78.667969 163.03125 "/>
<path style=" stroke:none;fill-rule:nonzero;fill:rgb(0%,0%,0%);fill-opacity:1;" d="M 76.132812 172.9375 C 73.667969 174.734375 72.601562 176.195312 73.667969 176.195312 C 74.734375 176.195312 79.332031 172.671875 79.332031 171.875 C 79.332031 170.546875 79.398438 170.546875 76.132812 172.9375 Z M 76.132812 172.9375 "/>
<path style=" stroke:none;fill-rule:nonzero;fill:rgb(0%,0%,0%);fill-opacity:1;" d="M 151.199219 27.792969 C 149.265625 29.519531 145.667969 32.511719 143.265625 34.441406 C 138.398438 38.230469 136.933594 39.695312 137.535156 40.292969 C 137.933594 40.691406 153.464844 27.859375 155.265625 25.664062 C 157.132812 23.402344 154.601562 24.734375 151.199219 27.792969 Z M 151.199219 27.792969 "/>
<path style=" stroke:none;fill-rule:nonzero;fill:rgb(0%,0%,0%);fill-opacity:1;" d="M 155.265625 33.777344 C 152.132812 36.238281 148.734375 38.894531 147.667969 39.761719 C 146.667969 40.558594 146 41.421875 146.199219 41.6875 C 146.667969 42.085938 154.199219 36.636719 159 32.378906 C 163.734375 28.257812 161.132812 29.1875 155.265625 33.777344 Z M 155.265625 33.777344 "/>
<path style=" stroke:none;fill-rule:nonzero;fill:rgb(0%,0%,0%);fill-opacity:1;" d="M 159.734375 41.753906 C 153.734375 45.8125 151.464844 47.871094 153.132812 47.871094 C 153.535156 47.871094 157.066406 45.480469 161.066406 42.554688 C 169.867188 36.105469 168.933594 35.503906 159.734375 41.753906 Z M 159.734375 41.753906 "/>
<path style=" stroke:none;fill-rule:nonzero;fill:rgb(0%,0%,0%);fill-opacity:1;" d="M 156.265625 52.660156 C 153.398438 54.921875 152.464844 55.851562 152.867188 56.316406 C 153.332031 56.78125 158.667969 52.660156 158.667969 51.796875 C 158.667969 50.929688 158.398438 50.996094 156.265625 52.660156 Z M 156.265625 52.660156 "/>
<path style=" stroke:none;fill-rule:nonzero;fill:rgb(0%,0%,0%);fill-opacity:1;" d="M 155.933594 63.097656 C 155.066406 63.828125 154.535156 64.628906 154.800781 64.828125 C 155.398438 65.425781 158.667969 63.429688 158.667969 62.5 C 158.667969 61.503906 157.667969 61.703125 155.933594 63.097656 Z M 155.933594 63.097656 "/>
<path style=" stroke:none;fill-rule:nonzero;fill:rgb(0%,0%,0%);fill-opacity:1;" d="M 178.601562 84.972656 C 175.535156 87.433594 171.535156 90.558594 169.734375 91.953125 C 165.199219 95.347656 159.867188 100.464844 160.265625 100.863281 C 160.601562 101.261719 182.535156 83.84375 184.066406 82.046875 C 186.066406 79.585938 183.734375 80.851562 178.601562 84.972656 Z M 178.601562 84.972656 "/>
<path style=" stroke:none;fill-rule:nonzero;fill:rgb(0%,0%,0%);fill-opacity:1;" d="M 162.332031 86.769531 C 159.398438 89.496094 157.398438 91.753906 157.800781 91.753906 C 159.132812 91.753906 168.667969 83.445312 168.667969 82.3125 C 168.667969 81.183594 167.464844 82.046875 162.332031 86.769531 Z M 162.332031 86.769531 "/>
<path style=" stroke:none;fill-rule:nonzero;fill:rgb(0%,0%,0%);fill-opacity:1;" d="M 188.601562 87.5 C 188.132812 88.097656 184.332031 91.089844 180.199219 94.214844 C 176.066406 97.273438 172.800781 100.132812 173.066406 100.464844 C 173.535156 101.261719 173.867188 101.0625 181.601562 94.8125 C 191.800781 86.503906 191.800781 86.503906 190.601562 86.4375 C 190 86.4375 189.132812 86.902344 188.601562 87.5 Z M 188.601562 87.5 "/>
<path style=" stroke:none;fill-rule:nonzero;fill:rgb(0%,0%,0%);fill-opacity:1;" d="M 188.265625 100.199219 C 186.464844 101.527344 184.867188 102.726562 184.734375 102.859375 C 184.601562 102.992188 184.601562 103.257812 184.867188 103.457031 C 185.265625 103.855469 192.398438 99.402344 193.066406 98.335938 C 193.933594 96.941406 191.265625 97.9375 188.265625 100.199219 Z M 188.265625 100.199219 "/>
<path style=" stroke:none;fill-rule:nonzero;fill:rgb(0%,0%,0%);fill-opacity:1;" d="M 189.464844 108.3125 C 186.667969 110.371094 185.667969 111.570312 186.199219 112.167969 C 186.667969 112.632812 187.933594 111.835938 191.332031 108.84375 C 194.800781 105.917969 193.398438 105.519531 189.464844 108.3125 Z M 189.464844 108.3125 "/>
<path style=" stroke:none;fill-rule:nonzero;fill:rgb(0%,0%,0%);fill-opacity:1;" d="M 188.800781 116.953125 C 186 119.015625 185 120.210938 185.535156 120.746094 C 186.066406 121.34375 192.734375 116.289062 192.265625 115.625 C 191.800781 114.828125 191.867188 114.761719 188.800781 116.953125 Z M 188.800781 116.953125 "/>
<path style=" stroke:none;fill-rule:nonzero;fill:rgb(0%,0%,0%);fill-opacity:1;" d="M 188.535156 124.734375 C 187.464844 125.265625 186.667969 125.996094 186.667969 126.328125 C 186.667969 127.726562 187.933594 127.460938 190.066406 125.664062 C 192.535156 123.605469 191.601562 123.003906 188.535156 124.734375 Z M 188.535156 124.734375 "/>
<path style=" stroke:none;fill-rule:nonzero;fill:rgb(0%,0%,0%);fill-opacity:1;" d="M 187.332031 131.980469 C 185.933594 133.644531 187.265625 134.042969 188.867188 132.445312 C 190 131.25 190.066406 130.984375 189.199219 130.984375 C 188.667969 130.984375 187.800781 131.449219 187.332031 131.980469 Z M 187.332031 131.980469 "/>
</g>
</svg>
