<?xml version="1.0" encoding="UTF-8"?>
<svg xmlns="http://www.w3.org/2000/svg" xmlns:xlink="http://www.w3.org/1999/xlink" width="200px" height="200px" viewBox="0 0 200 200" version="1.1">
<g id="surface1">
<path style=" stroke:none;fill-rule:nonzero;fill:rgb(61.960784%,94.117647%,94.117647%);fill-opacity:1;" d="M 75.308594 11.644531 C 104.585938 -0.347656 138.351562 -4.359375 160.785156 8.652344 C 183.398438 21.574219 194.679688 51.660156 198.535156 81.640625 C 202.265625 111.574219 198.589844 141.398438 181.171875 163.335938 C 163.753906 185.292969 132.414062 199.425781 99.371094 199.304688 C 66.328125 199.183594 31.585938 184.789062 14.113281 159.875 C -3.429688 134.789062 -3.703125 99.167969 8.625 71.261719 C 20.902344 43.496094 45.871094 23.582031 75.308594 11.644531 Z M 75.308594 11.644531 "/>
<path style=" stroke:none;fill-rule:nonzero;fill:rgb(0%,0%,0%);fill-opacity:1;" d="M 87.242188 20.621094 C 66.183594 23.738281 49.148438 32.890625 35.40625 48.648438 C 15.488281 71.453125 10.347656 101.175781 21.609375 128.925781 C 28.253906 145.34375 36.546875 155.101562 52.117188 164.980469 C 61.675781 171.035156 68.011719 174.027344 77.226562 176.867188 C 86.570312 179.753906 94.628906 180.898438 103.445312 180.515625 C 123.578125 179.703125 143.386719 172.003906 157.289062 159.566406 C 164.675781 153.027344 174.003906 140.328125 177.714844 131.867188 C 180.917969 124.566406 183.617188 112.941406 184.175781 103.890625 C 185.261719 87.800781 178.855469 66.816406 168.84375 53.339844 C 156.65625 37.042969 137.03125 24.652344 117.800781 21.160156 C 111.15625 19.914062 93.941406 19.636719 87.242188 20.621094 Z M 117.457031 23.132812 C 120.15625 23.738281 125.136719 25.105469 128.503906 26.125 C 135.710938 28.425781 137.03125 29.566406 135.546875 32.179688 C 135.09375 33.0625 133.535156 34.359375 132.050781 35.070312 C 129.371094 36.382812 126.621094 38.945312 126.621094 40.207031 C 126.621094 40.585938 125.695312 41.679688 124.609375 42.714844 C 121.804688 45.277344 121.929688 46.902344 125.351562 51.054688 C 128.558594 55.085938 128.792969 55.242188 130.675781 55.242188 C 131.652344 55.242188 132.558594 55.742188 133.136719 56.554688 C 133.824219 57.59375 134.621094 57.976562 136.453125 58.097656 C 138.695312 58.25 138.914062 58.40625 139.09375 59.828125 C 139.203125 60.707031 138.859375 62.714844 138.351562 64.308594 C 137.210938 67.734375 137.71875 69.046875 140.632812 70.242188 C 142.933594 71.125 142.933594 71.175781 141.773438 74.339844 C 140.578125 77.613281 140.6875 80.449219 142.0625 81.867188 C 142.753906 82.523438 143.601562 83.0625 144.074219 83.0625 C 145.449219 83.0625 145.558594 83.996094 144.363281 86.382812 C 141.503906 92.488281 144.527344 102.421875 150.195312 105.207031 C 152.023438 106.125 157.183594 106.191406 160.605469 105.363281 C 163.863281 104.601562 167.355469 105.484375 168.390625 107.28125 C 168.96875 108.371094 168.96875 109.460938 168.390625 112.941406 C 167.863281 116.105469 167.863281 117.800781 168.335938 119.375 C 169.585938 123.632812 168.789062 139.0625 167.066406 143.320312 C 166.722656 144.203125 165.871094 145.828125 165.238281 146.867188 C 164.550781 147.90625 163.753906 149.375 163.519531 150.136719 C 162.722656 152.542969 155.28125 159.789062 150.03125 163.335938 C 134.914062 173.476562 120.789062 178.285156 104.007812 178.871094 C 94.285156 179.253906 88.273438 178.5625 78.949219 175.984375 C 60.066406 170.8125 41.179688 158.042969 31.566406 143.875 C 25.683594 135.257812 20.234375 122.386719 18.402344 112.507812 C 17.261719 106.453125 17.371094 90.585938 18.695312 84.703125 C 20.867188 74.671875 25.972656 63.648438 32.433594 55.085938 C 40.09375 44.828125 52.75 33.546875 55.03125 34.914062 C 55.554688 35.191406 56.351562 36.054688 56.75 36.816406 C 57.492188 38.078125 57.492188 38.511719 56.515625 40.585938 C 55.882812 41.886719 52.75 46.695312 49.546875 51.261719 C 39.695312 65.277344 37.632812 70.292969 37.632812 80.328125 L 37.632812 87.160156 L 41.125 92.058594 C 44.910156 97.300781 46.339844 99.046875 52.40625 105.742188 C 56.695312 110.429688 58.527344 113.335938 58.527344 115.449219 C 58.527344 116.15625 57.601562 119.273438 56.570312 122.332031 C 55.484375 125.378906 54.398438 128.875 54.234375 130.1875 C 53.601562 134.167969 56.351562 138.632812 60.808594 140.863281 C 63.324219 142.179688 65.730469 144.304688 66.816406 146.261719 C 67.269531 147.144531 68.539062 151.277344 69.625 155.429688 C 71.796875 163.890625 73.570312 167.800781 76.324219 169.996094 C 78.949219 172.109375 82.207031 173.597656 84.324219 173.597656 L 86.15625 173.597656 L 85.703125 169.597656 C 85.066406 163.992188 85.195312 162.296875 86.390625 160.5 C 86.96875 159.6875 90.734375 156.085938 94.738281 152.59375 C 102.359375 145.949219 104.476562 143.164062 105.21875 138.804688 C 105.851562 135.03125 104.640625 132.957031 98.519531 127.125 C 93.488281 122.332031 92.164062 121.398438 87.023438 118.996094 C 83.765625 117.523438 79.691406 115.570312 77.972656 114.6875 C 75.109375 113.164062 74.496094 113.0625 71.109375 113.390625 C 66.710938 113.769531 66.472656 113.546875 62.472656 107.058594 C 60.300781 103.5625 59.957031 102.523438 59.957031 99.964844 C 59.957031 95.605469 61.042969 93.578125 64.246094 92.058594 C 65.675781 91.347656 68.539062 90.484375 70.601562 90.15625 C 75.453125 89.339844 77.464844 88.355469 79.691406 85.742188 C 81.59375 83.441406 82.679688 82.90625 87.3125 81.695312 C 88.851562 81.261719 91.476562 80.171875 93.144531 79.1875 C 95.605469 77.765625 96.457031 76.851562 97.433594 74.773438 C 99.152344 70.898438 99.445312 67.472656 98.339844 63.925781 C 97.324219 60.605469 96.238281 59.1875 93.144531 57.214844 C 91.1875 55.898438 90.445312 55.796875 85.464844 55.796875 C 81.917969 55.796875 79.691406 55.585938 79.238281 55.136719 C 78.097656 54.046875 78.496094 51.972656 80.214844 49.84375 C 82.386719 47.230469 83.367188 45.171875 82.949219 44.132812 C 82.496094 43.042969 75.582031 39.980469 73.570312 39.980469 C 71.398438 39.980469 69.625 38.71875 67.613281 35.726562 C 63.613281 29.671875 66.527344 27.058594 81.410156 23.355469 C 89.828125 21.226562 108.476562 21.105469 117.457031 23.132812 Z M 63.667969 32.457031 C 64.988281 37.042969 69.171875 41.625 72.085938 41.625 C 73.96875 41.625 76.832031 42.59375 76.832031 43.253906 C 76.832031 43.476562 77.625 43.804688 78.550781 44.011719 C 81.175781 44.515625 81.175781 45.605469 78.605469 49.03125 C 75.925781 52.628906 75.582031 55.035156 77.464844 56.675781 C 78.441406 57.542969 79.582031 57.699219 84.5625 57.699219 C 90.28125 57.699219 90.519531 57.75 92.691406 59.394531 C 94.339844 60.65625 95.152344 61.902344 96.113281 64.582031 C 97.886719 69.429688 97.777344 71.503906 95.769531 74.167969 C 93.199219 77.558594 90.734375 79.03125 85.757812 80.328125 C 80.722656 81.589844 79.980469 82.023438 77.699219 84.582031 C 75.691406 86.882812 73.859375 87.75 68.992188 88.734375 C 63.105469 89.878906 60.699219 91.140625 59.429688 93.699219 C 58.054688 96.367188 57.601562 100.621094 58.472656 103.511719 C 59.269531 106.347656 64.699219 114.253906 66.417969 115.015625 C 67.269531 115.394531 68.699219 115.449219 70.710938 115.1875 C 73.335938 114.757812 74.023438 114.859375 76.539062 116.15625 C 78.152344 116.9375 82.152344 118.890625 85.539062 120.464844 C 90.445312 122.816406 92.402344 124.132812 95.824219 127.351562 C 101.78125 132.957031 103.734375 135.464844 103.734375 137.644531 C 103.734375 141.089844 101.617188 143.925781 93.648438 151.070312 C 84.324219 159.460938 82.949219 161.640625 83.476562 166.832031 C 83.691406 168.734375 83.582031 170.308594 83.292969 170.480469 C 82.550781 170.914062 77.355469 168.578125 76.140625 167.265625 C 74.152344 165.136719 72.320312 160.066406 71.109375 153.40625 C 70.257812 148.613281 69.390625 145.722656 68.25 143.699219 C 67.34375 142.125 66.710938 140.480469 66.871094 140.152344 C 67.054688 139.773438 70.257812 137.058594 74.023438 134.046875 C 81.917969 127.785156 83.980469 125.8125 83.292969 125.429688 C 82.785156 125.101562 71.5625 133.71875 67.398438 137.644531 C 66.074219 138.804688 64.878906 139.773438 64.644531 139.773438 C 64.355469 139.773438 62.816406 138.90625 61.097656 137.871094 C 55.484375 134.480469 55.03125 131.761719 58.527344 122.28125 C 59.773438 118.839844 60.808594 115.292969 60.808594 114.425781 C 60.808594 112.179688 59.957031 110.984375 50.289062 99.964844 C 38.953125 86.988281 37.921875 84.480469 39.929688 74.496094 C 40.964844 69.324219 45.652344 60.15625 52.0625 51.003906 C 56.640625 44.34375 59.667969 38.789062 59.667969 36.921875 C 59.667969 36.28125 59.105469 35.136719 58.472656 34.308594 C 57.78125 33.496094 57.332031 32.785156 57.4375 32.679688 C 59.03125 31.644531 61.839844 30.171875 62.363281 30.171875 C 62.761719 30.171875 63.324219 31.195312 63.667969 32.457031 Z M 142.40625 32.457031 C 142.644531 32.785156 141.902344 33.824219 140.578125 34.964844 C 133.878906 40.742188 128.214844 46.039062 128.503906 46.367188 C 128.738281 46.523438 131.074219 44.722656 133.773438 42.386719 C 136.523438 40.035156 140 36.988281 141.558594 35.675781 L 144.417969 33.269531 L 148.527344 35.953125 C 153 38.839844 162.902344 47.992188 164.550781 50.777344 L 165.582031 52.472656 L 163.863281 53.339844 C 162.902344 53.769531 161.292969 54.167969 160.261719 54.222656 C 157.582031 54.273438 155.679688 54.859375 155.171875 55.796875 C 150.988281 63.703125 150.9375 63.804688 151.96875 65.882812 C 152.476562 66.972656 152.945312 68.824219 152.945312 70.085938 C 152.945312 72.039062 152.65625 72.59375 150.589844 74.289062 C 149.269531 75.378906 147.277344 77.179688 146.011719 78.269531 C 144.816406 79.410156 143.675781 80.328125 143.441406 80.328125 C 143.203125 80.328125 143.203125 79.1875 143.441406 77.714844 C 144.6875 69.429688 144.6875 69.601562 142.355469 68.285156 C 140.074219 66.972656 140 66.644531 141.265625 60.863281 C 141.558594 59.445312 141.320312 58.910156 140.179688 57.75 C 139.3125 56.988281 138.0625 56.347656 137.265625 56.347656 C 136.453125 56.347656 135.65625 56.070312 135.4375 55.742188 C 135.257812 55.414062 133.71875 54.550781 132.050781 53.890625 C 128.902344 52.523438 124.320312 48.21875 124.320312 46.523438 C 124.320312 46.039062 125.007812 45.050781 125.824219 44.289062 C 126.621094 43.582031 127.941406 41.832031 128.683594 40.363281 C 129.824219 38.234375 130.621094 37.527344 133.375 36.28125 C 136.398438 34.914062 137.429688 33.824219 138.296875 31.089844 C 138.570312 30.226562 138.75 30.171875 140.289062 30.984375 C 141.214844 31.417969 142.171875 32.074219 142.40625 32.457031 Z M 168.625 55.898438 C 170.328125 58.097656 175.886719 68.667969 177.316406 72.542969 C 178.347656 75.257812 178.347656 75.429688 177.316406 76.417969 C 175.488281 78.371094 167.753906 80.015625 160.097656 80.066406 C 154.25 80.121094 152.765625 80.328125 150.195312 81.433594 C 147.910156 82.351562 146.988281 82.523438 146.464844 82.023438 C 145.503906 81.105469 147.675781 78.648438 150.753906 77.230469 C 152.257812 76.574219 153.796875 75.484375 154.320312 74.773438 C 155.460938 73.25 155.515625 68.5625 154.375 66.710938 C 153.289062 64.894531 153.289062 62.613281 154.429688 61.746094 C 154.9375 61.367188 155.914062 59.878906 156.601562 58.527344 C 157.742188 56.175781 157.980469 56.070312 160.710938 55.742188 C 162.324219 55.519531 164.152344 55.136719 164.730469 54.808594 C 166.453125 53.839844 167.066406 54.046875 168.625 55.898438 Z M 180.121094 81.539062 C 182.347656 88.839844 182.980469 98.71875 181.839844 108.699219 C 180.972656 116.605469 180.683594 117.644531 178.003906 125.605469 C 176.464844 129.964844 172.734375 138.199219 171.015625 140.8125 C 169.875 142.558594 169.765625 139.996094 170.742188 133.234375 C 171.703125 126.3125 171.703125 125.605469 170.851562 121.453125 C 170 117.578125 170 116.433594 170.671875 112.402344 C 171.539062 107.109375 171.195312 105.96875 168.28125 104.546875 C 166.777344 103.789062 165.582031 103.734375 161.582031 104.0625 C 150.699219 104.980469 149.105469 104.445312 146.589844 99.097656 C 143.332031 92.28125 145.105469 85.570312 150.9375 82.628906 C 152.257812 81.972656 154.195312 81.816406 158.957031 81.867188 C 165.183594 81.917969 170.507812 81.210938 174.980469 79.636719 C 178.800781 78.269531 179.144531 78.425781 180.121094 81.539062 Z M 180.121094 81.539062 "/>
<path style=" stroke:none;fill-rule:nonzero;fill:rgb(0%,0%,0%);fill-opacity:1;" d="M 99.027344 38.40625 C 97.542969 39.167969 97.144531 42.265625 98.230469 44.238281 C 98.753906 45.171875 99.152344 46.644531 99.152344 47.558594 C 99.152344 50.34375 100.1875 51.917969 102.992188 53.617188 C 104.476562 54.550781 105.851562 55.242188 106.070312 55.242188 C 106.703125 55.242188 108.875 48.703125 108.875 46.851562 C 108.875 44.066406 106.703125 40.640625 104.078125 39.167969 C 101.433594 37.699219 100.53125 37.527344 99.027344 38.40625 Z M 104.296875 41.9375 C 105.5625 43.042969 106.59375 44.238281 106.59375 44.566406 C 106.59375 45.605469 101.617188 49.964844 101.21875 49.308594 C 100.640625 48.441406 101.382812 46.46875 102.757812 45.050781 C 104.132812 43.582031 103.609375 42.714844 102.125 43.960938 C 100.800781 45.101562 99.714844 44.238281 99.714844 42.164062 C 99.714844 39.324219 101.144531 39.273438 104.296875 41.9375 Z M 107.15625 47.613281 C 107.15625 49.410156 105.5625 52.523438 104.695312 52.523438 C 104.242188 52.523438 103.554688 52.144531 103.15625 51.710938 C 102.574219 51.054688 102.757812 50.5 104.351562 48.753906 C 106.59375 46.3125 107.15625 46.089844 107.15625 47.613281 Z M 107.15625 47.613281 "/>
<path style=" stroke:none;fill-rule:nonzero;fill:rgb(0%,0%,0%);fill-opacity:1;" d="M 59.667969 45.433594 C 56.804688 48.164062 54.523438 50.675781 54.523438 51.003906 C 54.523438 51.589844 64.644531 42.59375 65.570312 41.226562 C 65.839844 40.796875 65.730469 40.535156 65.386719 40.535156 C 65.042969 40.535156 62.472656 42.769531 59.667969 45.433594 Z M 59.667969 45.433594 "/>
<path style=" stroke:none;fill-rule:nonzero;fill:rgb(0%,0%,0%);fill-opacity:1;" d="M 61.496094 50.449219 C 54.234375 56.9375 50.289062 61.039062 50.976562 61.46875 C 51.535156 61.796875 68.59375 45.605469 68.140625 45.171875 C 67.902344 44.949219 64.933594 47.335938 61.496094 50.449219 Z M 61.496094 50.449219 "/>
<path style=" stroke:none;fill-rule:nonzero;fill:rgb(0%,0%,0%);fill-opacity:1;" d="M 63.105469 57.542969 C 52.675781 66.433594 43.480469 75.171875 43.695312 75.882812 C 43.824219 76.210938 46.105469 74.460938 48.804688 72.007812 C 51.484375 69.550781 55.320312 66.054688 57.386719 64.253906 C 67.269531 55.535156 70.023438 52.976562 69.859375 52.472656 C 69.734375 52.144531 66.710938 54.445312 63.105469 57.542969 Z M 63.105469 57.542969 "/>
<path style=" stroke:none;fill-rule:nonzero;fill:rgb(0%,0%,0%);fill-opacity:1;" d="M 70.183594 61.851562 C 69.28125 62.765625 65.839844 65.777344 62.527344 68.511719 C 50.269531 78.546875 46.160156 82.523438 48.152344 82.523438 C 48.441406 82.523438 50.160156 81.105469 52.042969 79.359375 C 53.871094 77.664062 58.234375 73.910156 61.65625 71.070312 C 68.644531 65.277344 72.195312 61.851562 72.25 60.8125 C 72.25 59.878906 72.070312 59.949219 70.183594 61.851562 Z M 70.183594 61.851562 "/>
<path style=" stroke:none;fill-rule:nonzero;fill:rgb(0%,0%,0%);fill-opacity:1;" d="M 73.625 68.460938 C 58.179688 81.054688 48.804688 89.394531 48.804688 90.535156 C 48.804688 91.796875 49.816406 91.3125 51.589844 89.1875 C 52.570312 88.09375 58.34375 82.957031 64.480469 77.886719 C 70.601562 72.765625 75.742188 68.285156 75.925781 67.855469 C 76.613281 66.433594 75.796875 66.660156 73.625 68.460938 Z M 73.625 68.460938 "/>
<path style=" stroke:none;fill-rule:nonzero;fill:rgb(0%,0%,0%);fill-opacity:1;" d="M 83.925781 68.890625 C 82.734375 70.085938 80.035156 72.492188 77.863281 74.1875 C 73.914062 77.351562 73.28125 78.164062 74.839844 78.164062 C 75.796875 78.164062 85.703125 69.324219 86.625 67.699219 C 87.585938 65.949219 86.15625 66.609375 83.925781 68.890625 Z M 83.925781 68.890625 "/>
<path style=" stroke:none;fill-rule:nonzero;fill:rgb(0%,0%,0%);fill-opacity:1;" d="M 64.988281 121.175781 C 60.355469 125.273438 59.613281 126.140625 60.808594 126.140625 C 62.019531 126.140625 70.546875 117.75 69.914062 117.195312 C 69.785156 117.089844 67.558594 118.890625 64.988281 121.175781 Z M 64.988281 121.175781 "/>
<path style=" stroke:none;fill-rule:nonzero;fill:rgb(0%,0%,0%);fill-opacity:1;" d="M 70.546875 124.082031 C 61.207031 131.882812 59.429688 133.5625 59.902344 134.269531 C 60.246094 134.722656 61.441406 133.941406 63.847656 131.832031 C 74.601562 122.230469 76.324219 120.585938 76.140625 120.101562 C 76.035156 119.773438 73.515625 121.574219 70.546875 124.082031 Z M 70.546875 124.082031 "/>
<path style=" stroke:none;fill-rule:nonzero;fill:rgb(0%,0%,0%);fill-opacity:1;" d="M 84.851562 133.027344 C 77.410156 138.269531 73.96875 141.035156 73.96875 141.796875 C 73.96875 142.179688 74.078125 142.507812 74.257812 142.507812 C 74.601562 142.507812 86.570312 133.839844 88.453125 132.265625 C 89.9375 130.898438 90.445312 129.964844 89.59375 129.964844 C 89.304688 130.03125 87.1875 131.382812 84.851562 133.027344 Z M 84.851562 133.027344 "/>
<path style=" stroke:none;fill-rule:nonzero;fill:rgb(0%,0%,0%);fill-opacity:1;" d="M 92.21875 136.296875 C 91.820312 136.78125 89.179688 138.699219 86.445312 140.601562 C 80.722656 144.480469 76.832031 147.695312 76.832031 148.511719 C 76.832031 148.785156 76.992188 149.0625 77.28125 148.996094 C 78.023438 148.941406 94.15625 136.78125 94.445312 136.070312 C 94.789062 135.101562 93.125 135.257812 92.21875 136.296875 Z M 92.21875 136.296875 "/>
<path style=" stroke:none;fill-rule:nonzero;fill:rgb(0%,0%,0%);fill-opacity:1;" d="M 81.410156 151.902344 C 76.484375 155.050781 74.710938 156.691406 76.214844 156.691406 C 76.832031 156.691406 88.273438 149.167969 88.273438 148.734375 C 88.273438 147.921875 86.046875 148.941406 81.410156 151.902344 Z M 81.410156 151.902344 "/>
<path style=" stroke:none;fill-rule:nonzero;fill:rgb(0%,0%,0%);fill-opacity:1;" d="M 79.238281 160.015625 C 77.136719 161.484375 76.214844 162.695312 77.136719 162.695312 C 78.042969 162.695312 81.988281 159.808594 81.988281 159.148438 C 81.988281 158.058594 82.042969 158.058594 79.238281 160.015625 Z M 79.238281 160.015625 "/>
<path style=" stroke:none;fill-rule:nonzero;fill:rgb(0%,0%,0%);fill-opacity:1;" d="M 143.675781 40.96875 C 142.007812 42.386719 138.933594 44.828125 136.867188 46.417969 C 132.683594 49.53125 131.4375 50.726562 131.941406 51.210938 C 132.285156 51.539062 145.628906 41.019531 147.167969 39.222656 C 148.761719 37.371094 146.589844 38.460938 143.675781 40.96875 Z M 143.675781 40.96875 "/>
<path style=" stroke:none;fill-rule:nonzero;fill:rgb(0%,0%,0%);fill-opacity:1;" d="M 147.152344 45.882812 C 144.472656 47.90625 141.558594 50.085938 140.632812 50.796875 C 139.78125 51.433594 139.203125 52.144531 139.382812 52.371094 C 139.78125 52.699219 146.246094 48.21875 150.355469 44.738281 C 154.429688 41.347656 152.203125 42.109375 147.152344 45.882812 Z M 147.152344 45.882812 "/>
<path style=" stroke:none;fill-rule:nonzero;fill:rgb(0%,0%,0%);fill-opacity:1;" d="M 150.988281 52.421875 C 145.847656 55.742188 143.894531 57.4375 145.324219 57.4375 C 145.667969 57.4375 148.707031 55.484375 152.128906 53.078125 C 159.699219 47.785156 158.882812 47.300781 150.988281 52.421875 Z M 150.988281 52.421875 "/>
<path style=" stroke:none;fill-rule:nonzero;fill:rgb(0%,0%,0%);fill-opacity:1;" d="M 148.019531 61.367188 C 145.558594 63.21875 144.761719 63.976562 145.105469 64.359375 C 145.503906 64.738281 150.085938 61.367188 150.085938 60.65625 C 150.085938 59.949219 149.847656 60 148.019531 61.367188 Z M 148.019531 61.367188 "/>
<path style=" stroke:none;fill-rule:nonzero;fill:rgb(0%,0%,0%);fill-opacity:1;" d="M 147.730469 69.914062 C 146.988281 70.519531 146.535156 71.175781 146.753906 71.332031 C 147.277344 71.832031 150.085938 70.1875 150.085938 69.429688 C 150.085938 68.613281 149.214844 68.769531 147.730469 69.914062 Z M 147.730469 69.914062 "/>
<path style=" stroke:none;fill-rule:nonzero;fill:rgb(0%,0%,0%);fill-opacity:1;" d="M 167.195312 87.871094 C 164.570312 89.894531 161.128906 92.457031 159.589844 93.597656 C 155.699219 96.382812 151.117188 100.570312 151.460938 100.898438 C 151.75 101.226562 170.582031 86.9375 171.882812 85.464844 C 173.605469 83.460938 171.613281 84.496094 167.195312 87.871094 Z M 167.195312 87.871094 "/>
<path style=" stroke:none;fill-rule:nonzero;fill:rgb(0%,0%,0%);fill-opacity:1;" d="M 153.21875 89.339844 C 150.699219 91.574219 149 93.425781 149.34375 93.425781 C 150.484375 93.425781 158.667969 86.609375 158.667969 85.671875 C 158.667969 84.757812 157.632812 85.464844 153.21875 89.339844 Z M 153.21875 89.339844 "/>
<path style=" stroke:none;fill-rule:nonzero;fill:rgb(0%,0%,0%);fill-opacity:1;" d="M 175.777344 89.929688 C 175.378906 90.429688 172.101562 92.871094 168.550781 95.449219 C 165.023438 97.957031 162.214844 100.292969 162.433594 100.570312 C 162.847656 101.226562 163.121094 101.054688 169.765625 95.933594 C 178.511719 89.117188 178.511719 89.117188 177.496094 89.066406 C 176.972656 89.066406 176.230469 89.445312 175.777344 89.929688 Z M 175.777344 89.929688 "/>
<path style=" stroke:none;fill-rule:nonzero;fill:rgb(0%,0%,0%);fill-opacity:1;" d="M 175.488281 100.34375 C 173.929688 101.433594 172.570312 102.421875 172.445312 102.523438 C 172.335938 102.644531 172.335938 102.851562 172.570312 103.027344 C 172.914062 103.355469 179.035156 99.703125 179.597656 98.820312 C 180.355469 97.679688 178.058594 98.492188 175.488281 100.34375 Z M 175.488281 100.34375 "/>
<path style=" stroke:none;fill-rule:nonzero;fill:rgb(0%,0%,0%);fill-opacity:1;" d="M 176.519531 107.003906 C 174.109375 108.699219 173.257812 109.667969 173.710938 110.171875 C 174.109375 110.550781 175.195312 109.894531 178.113281 107.4375 C 181.097656 105.03125 179.886719 104.722656 176.519531 107.003906 Z M 176.519531 107.003906 "/>
<path style=" stroke:none;fill-rule:nonzero;fill:rgb(0%,0%,0%);fill-opacity:1;" d="M 175.957031 114.097656 C 173.550781 115.777344 172.699219 116.761719 173.152344 117.195312 C 173.605469 117.699219 179.324219 113.546875 178.925781 113.007812 C 178.527344 112.351562 178.582031 112.300781 175.957031 114.097656 Z M 175.957031 114.097656 "/>
<path style=" stroke:none;fill-rule:nonzero;fill:rgb(0%,0%,0%);fill-opacity:1;" d="M 175.722656 120.464844 C 174.796875 120.914062 174.109375 121.503906 174.109375 121.78125 C 174.109375 122.921875 175.195312 122.714844 177.027344 121.242188 C 179.144531 119.546875 178.347656 119.046875 175.722656 120.464844 Z M 175.722656 120.464844 "/>
<path style=" stroke:none;fill-rule:nonzero;fill:rgb(0%,0%,0%);fill-opacity:1;" d="M 174.691406 126.417969 C 173.476562 127.785156 174.617188 128.113281 175.992188 126.816406 C 176.972656 125.828125 177.027344 125.605469 176.285156 125.605469 C 175.832031 125.605469 175.089844 125.984375 174.691406 126.417969 Z M 174.691406 126.417969 "/>
</g>
</svg>
